<svg width="20" height="19" viewBox="0 0 20 19" fill="none" xmlns="http://www.w3.org/2000/svg">
<path d="M9.52441 1.08203C9.66475 0.650113 10.246 0.622952 10.4414 1.00098L10.4756 1.08203L11.9941 5.75488C12.195 6.37292 12.7711 6.79199 13.4209 6.79199H18.335C18.7892 6.79199 18.9947 7.33703 18.6953 7.63965L18.6289 7.69629L14.6533 10.585C14.1604 10.9431 13.9358 11.5605 14.0752 12.1455L14.1084 12.2617L15.627 16.9355C15.7673 17.3674 15.3128 17.7307 14.9326 17.54L14.8574 17.4951L10.8818 14.6064C10.3889 14.2483 9.73211 14.2256 9.21875 14.5391L9.11816 14.6064L5.14258 17.4951C4.77512 17.7618 4.2882 17.4412 4.35254 17.0205L4.37305 16.9355L5.8916 12.2617C6.07981 11.6823 5.89806 11.0515 5.44141 10.6602L5.34668 10.585L1.37109 7.69629C0.979264 7.41158 1.18069 6.79199 1.66504 6.79199H6.5791C7.18822 6.79199 7.73268 6.42419 7.96387 5.86914L8.00586 5.75488L9.52441 1.08203Z" stroke="#505050"/>
</svg>
