<svg width="21" height="21" viewBox="0 0 21 21" fill="none" xmlns="http://www.w3.org/2000/svg">
<path d="M0.914908 1.99816C-0.304969 3.21803 -0.304969 5.19583 0.914908 6.4157L2.63496 8.13575C2.64787 8.12082 2.66141 8.10624 2.6756 8.09206L7.00893 3.75873C7.02308 3.74459 7.0376 3.73108 7.05249 3.7182L5.33245 1.99816C4.11258 0.778283 2.13477 0.778283 0.914908 1.99816Z" fill="white"/>
<path d="M8.19861 4.86426C8.18572 4.87914 8.17218 4.89368 8.15799 4.90782L3.8247 9.24112C3.81052 9.25531 3.79595 9.26885 3.78101 9.28174L14.1676 19.6684C15.3875 20.8883 17.3652 20.8883 18.5852 19.6684C19.805 18.4485 19.805 16.4707 18.5852 15.2508L8.19861 4.86426Z" fill="white"/>
<path d="M14.1917 0.332792C14.3661 -0.110931 14.9918 -0.110931 15.1661 0.332792L15.6323 1.51935C15.6856 1.65482 15.7925 1.76206 15.9274 1.81549L17.1096 2.28345C17.5517 2.45845 17.5517 3.08642 17.1096 3.26142L15.9274 3.7294C15.7925 3.78283 15.6856 3.89006 15.6323 4.02553L15.1662 5.21208C14.9918 5.6558 14.3661 5.6558 14.1917 5.21209L13.7256 4.02553C13.6723 3.89006 13.5654 3.78283 13.4305 3.7294L12.2483 3.26142C11.8062 3.08642 11.8062 2.45845 12.2483 2.28345L13.4305 1.81549C13.5654 1.76206 13.6723 1.65482 13.7256 1.51935L14.1917 0.332792Z" fill="white"/>
<path d="M18.3812 7.72341C18.5555 7.2797 19.1812 7.2797 19.3555 7.72341L19.5255 8.15604C19.5788 8.29151 19.6856 8.39875 19.8206 8.45217L20.2516 8.62279C20.6937 8.7978 20.6937 9.42581 20.2516 9.60077L19.8206 9.7714C19.6856 9.82481 19.5788 9.93205 19.5255 10.0675L19.3555 10.5002C19.1812 10.9439 18.5555 10.9439 18.3812 10.5002L18.2112 10.0675C18.1579 9.93205 18.0511 9.82481 17.9161 9.7714L17.4851 9.60077C17.0431 9.42581 17.0431 8.7978 17.4851 8.62279L17.9161 8.45217C18.0511 8.39875 18.1579 8.29151 18.2112 8.15604L18.3812 7.72341Z" fill="white"/>
<path d="M2.31089 14.4161C2.48524 13.9723 3.11089 13.9723 3.28525 14.4161L3.45524 14.8486C3.50848 14.9842 3.61532 15.0914 3.75029 15.1448L4.18131 15.3154C4.6234 15.4904 4.6234 16.1184 4.18131 16.2934L3.75029 16.464C3.61532 16.5174 3.50848 16.6246 3.45524 16.7602L3.28525 17.1927C3.11089 17.6365 2.48524 17.6365 2.31089 17.1927L2.14089 16.7602C2.08765 16.6246 1.98082 16.5174 1.84584 16.464L1.41482 16.2934C0.97273 16.1184 0.97273 15.4904 1.41482 15.3154L1.84584 15.1448C1.98082 15.0914 2.08765 14.9842 2.14089 14.8486L2.31089 14.4161Z" fill="white"/>
</svg>
