<svg width="165" height="179" viewBox="0 0 165 179" fill="none" xmlns="http://www.w3.org/2000/svg">
<path d="M120.464 165.766C120.464 167.999 117.423 169.76 110.204 171.392C105.232 172.515 96.7009 171.041 89.4162 171.684C82.1314 172.326 73.0406 175.139 64.3484 175.139C34.345 175.139 11.8115 171.074 11.8115 165.767C11.8115 160.459 36.1344 156.156 66.1379 156.156C96.1413 156.156 120.464 160.458 120.464 165.766Z" fill="white"/>
<path d="M62.0146 175.13C62.0146 175.13 78.9341 172.823 84.6934 168.048C91.0507 162.778 98.8777 171.753 111.213 171.155C111.213 171.155 96.0735 174.101 87.9642 174.771C79.8549 175.44 62.0146 175.13 62.0146 175.13Z" fill="#FFDE84"/>
<path d="M75.2114 8.0747C68.5876 8.783 64.3146 12.3419 62.9985 19.3095C62.4438 22.2456 63.0217 25.2424 64.0339 28.2002C64.8037 30.4488 66.4079 31.9127 65.8831 34.104C65.4115 36.0745 63.4942 37.5093 63.1056 39.5861C62.859 40.9038 63.5266 41.662 63.0856 42.9889C62.5276 44.6687 60.4318 46.253 59.1215 47.4271C52.1398 53.6839 51.9347 60.7287 55.0835 69.4724C58.4531 78.8289 67.8129 86.528 77.5638 88.5566C84.391 89.9773 89.8557 84.6182 96.5068 84.702C100.599 84.7535 104.509 85.1554 108.619 84.57C112.769 83.9796 115.043 81.4478 118.676 79.7456C127.233 75.7366 137.577 79.2175 145.511 72.9433C152.551 67.3774 154.755 55.4501 150.383 47.5608C146.884 41.246 140.34 36.0645 133.201 34.7716C129.982 34.1887 126.197 34.5142 123.689 32.0447C121.791 30.1772 121.908 27.785 120.782 25.46C118.305 20.3458 113.028 21.3895 109.822 17.5524C107.017 14.1945 106.296 9.67812 103.305 6.30852C96.7808 -1.04184 83.6387 -2.81131 77.098 5.55291C76.437 6.39656 75.9023 6.90141 75.2114 8.0747Z" fill="#563520"/>
<path d="M124.339 45.7913C88.239 26.6747 51.7612 51.652 31.4697 87.5933L58.5885 108.206C60.4726 105.062 62.3865 102.12 64.2681 99.5812C67.4127 105.147 72.3027 109.175 72.3027 109.175L75.3476 148.756H155.339C155.339 148.756 165.741 67.7153 124.339 45.7913Z" fill="#EFB563"/>
<path d="M156.484 124.124C119.948 117.359 112.626 86.8112 112.626 86.8112L109.358 86.9382L115.42 41.7134C115.511 41.0317 115.033 40.4048 114.351 40.3143C113.669 40.2138 113.042 40.7012 112.951 41.383L106.832 87.037L67.1964 88.5782L73.7322 45.969C73.8368 45.289 73.3702 44.6529 72.6901 44.5491C72.0125 44.4437 71.374 44.9112 71.2702 45.5912L64.6605 88.6761L61.6064 88.7949C61.9942 96.5912 64.6273 99.8885 64.6273 99.8885L64.5957 100.134C67.7411 105.41 72.3015 109.174 72.3015 109.174L75.3464 148.755H155.338C155.339 148.756 156.665 138.415 156.484 124.124Z" fill="#E76B39"/>
<path d="M119.898 107.294C118.507 105.981 114.15 106.537 112.756 102.865C111.708 100.107 113.234 97.2628 112.694 94.5691C112.097 91.5915 110.988 89.9108 112.626 86.8111C114.965 82.3861 119.621 81.1472 124.327 80.4372C129.865 79.6027 135.895 79.4159 140.967 82.2914C144.216 84.1323 149.141 87.6912 151.15 90.8591C152.931 93.6665 150.94 95.7856 150.898 98.5748C150.852 101.633 152.905 104.48 150.458 107.421C147.75 110.675 140.38 109.685 136.538 109.507C131.74 109.286 125.51 109.648 121.275 107.536C120.757 107.666 121.222 107.806 119.898 107.294Z" fill="#D69135"/>
<path d="M84.693 108.055C80.1825 108.106 72.3032 109.175 72.3032 109.175C72.3032 109.175 62.8927 101.426 61.785 92.5681C60.6782 83.7106 65.1065 74.0236 65.1065 69.318" stroke="#D69135" stroke-miterlimit="10" stroke-linecap="round" stroke-linejoin="round"/>
<path d="M164.498 143.082H25.2744V149.587H164.498V143.082Z" fill="#563520"/>
<path d="M63.9941 98.0136C62.9744 94.1474 62.0477 90.2439 61.9331 86.1245C58.2056 81.5525 52.8888 77.9579 47.9249 76.0863C42.3482 73.9846 33.1271 72.3771 31.6025 79.6153C30.8228 83.3162 23.6444 91.981 29.6653 94.2853C34.175 94.9928 38.179 100.515 41.6225 102.804C45.7668 105.56 51.992 111.417 57.1851 111.455C61.5387 111.488 61.5354 107.314 63.7101 104.588C64.4782 103.624 65.1217 102.867 65.6232 102.129C64.9631 100.756 64.3561 99.3845 63.9941 98.0136Z" fill="#D69135"/>
<path d="M59.0976 107.736C55.0056 96.2863 44.5829 89.0763 31.7538 87.5103C22.4488 103.991 16.5566 122.772 15.6548 140.668C15.5053 140.877 15.3741 141.098 15.2728 141.338C12.5077 143.384 9.40218 145.352 6.7691 147.504C3.86118 149.88 5.53852 151.308 6.43116 154.334C7.2391 157.075 5.82583 161.43 8.84668 162.712C10.0316 163.215 11.924 163.046 12.9835 163.281C14.6982 163.66 15.4414 163.962 17.352 163.751C20.4842 163.404 23.3049 165.103 26.2768 162.97C28.5819 165.103 31.1775 165.545 33.6794 163.619C35.2845 162.384 38.1119 160.166 38.7397 158.162C39.2179 156.635 38.6583 155.003 38.8003 153.227C38.9788 150.982 40.1405 149.382 40.5357 147.214C40.6794 146.426 40.6752 145.723 40.5723 145.078C41.7356 142.313 50.1098 122.637 59.0976 107.736Z" fill="#FBCDB4"/>
<path d="M35.4773 142.03C35.4773 142.03 24.9749 133.387 15.9946 136.17C15.8509 137.674 15.7281 139.175 15.6533 140.668C15.6533 140.668 29.6648 139.263 35.4773 142.03Z" fill="#EEA584"/>
<path d="M31.753 87.5103C31.0613 88.735 30.3929 89.9739 29.7402 91.2228C29.8407 91.2411 49.0519 94.6921 56.4604 112.268C57.329 110.725 58.21 109.208 59.0968 107.737C55.0048 96.2863 44.5821 89.0763 31.753 87.5103Z" fill="#EEA584"/>
<path d="M26.2754 162.969L30.7726 152.717" stroke="#EEA584" stroke-miterlimit="10" stroke-linecap="round" stroke-linejoin="round"/>
<path d="M19.4121 163.762V151.857" stroke="#EEA584" stroke-miterlimit="10" stroke-linecap="round" stroke-linejoin="round"/>
<path d="M12.9816 163.281L11.8125 152.717" stroke="#EEA584" stroke-miterlimit="10" stroke-linecap="round" stroke-linejoin="round"/>
<path d="M26.9355 154.763L27.819 159.45" stroke="#EEA584" stroke-miterlimit="10" stroke-linecap="round" stroke-linejoin="round"/>
<path d="M37.5332 145.087C32.4024 145.087 28.2432 149.247 28.2432 154.377C28.2432 159.508 32.4024 163.668 37.5332 163.668H100.453V145.087H37.5332Z" fill="#EFB563"/>
<path d="M28.5108 152.205C28.3431 152.903 28.2451 153.628 28.2451 154.378C28.2451 159.508 32.4044 163.668 37.5352 163.668H100.455V159.322H37.5352C33.1534 159.322 29.4906 156.285 28.5108 152.205Z" fill="#D69135"/>
<path d="M100.453 163.668C105.584 163.668 109.743 159.508 109.743 154.377C109.743 149.247 105.584 145.087 100.453 145.087C95.3224 145.087 91.1631 149.247 91.1631 154.377C91.1631 159.508 95.3224 163.668 100.453 163.668Z" fill="#FFDE84"/>
<path d="M146.377 105.768L146.374 105.766C137.213 96.4185 116.424 100.993 116.424 100.993H116.423C116.511 117.129 115.11 132.306 112.565 142.1C105.091 147.497 100.254 147.168 100.687 153.888C101.355 164.235 105.409 166.731 111.189 165.873C113.115 165.588 113.681 165.82 115.679 166.327C117.256 166.728 119.209 166.901 120.467 165.668C122.702 166.73 126.241 166.868 128.053 164.786C131.062 168.226 136.483 161.496 135.527 158.363C134.883 156.255 133.523 156.313 135.213 153.973C137.202 151.218 139.032 147.429 138.166 143.92C142.457 131.305 146.751 117.873 146.377 105.768Z" fill="#FBCDB4"/>
<path d="M146.372 105.766C137.211 96.4185 116.422 100.993 116.422 100.993H116.421C116.429 102.428 116.421 103.85 116.405 105.267C121.445 105.031 138.116 104.73 146.301 110.436C146.394 108.861 146.423 107.305 146.375 105.768C146.374 105.768 146.372 105.766 146.372 105.766Z" fill="#EEA584"/>
<path d="M131.83 141.958C131.83 141.958 122.361 136.086 113.753 136.678C113.389 138.621 112.994 140.443 112.563 142.1C112.563 142.1 125.496 139.997 131.83 141.958Z" fill="#EEA584"/>
<path d="M111.769 165.798C111.769 165.798 108.134 160.022 107.719 156.423" stroke="#EEA584" stroke-miterlimit="10" stroke-linecap="round" stroke-linejoin="round"/>
<path d="M120.464 165.668C120.464 165.668 116.65 159.607 116.405 156.424" stroke="#EEA584" stroke-miterlimit="10" stroke-linecap="round" stroke-linejoin="round"/>
<path d="M128.051 164.786L124.327 156.424" stroke="#EEA584" stroke-miterlimit="10" stroke-linecap="round" stroke-linejoin="round"/>
<path d="M134.436 155.455L132.631 157.776" stroke="#EEA584" stroke-miterlimit="10" stroke-linecap="round" stroke-linejoin="round"/>
<path d="M131.83 155.455L132.631 159.052" stroke="#EEA584" stroke-miterlimit="10" stroke-linecap="round" stroke-linejoin="round"/>
<path d="M111.77 40.8698C107.741 39.826 103.732 39.2929 99.7656 39.2116L97.6938 29.312H84.5218L85.2077 40.9537C81.8804 41.8131 78.6046 42.964 75.4011 44.3997C75.3895 44.447 68.8711 71.1049 87.6987 72.142C106.542 73.1791 114.089 50.492 111.77 40.8698Z" fill="#FBCDB4"/>
<path d="M98.5008 33.1632L97.6945 29.3112H84.5225L85.2083 40.9528C85.1236 40.9744 85.0398 41.0018 84.9551 41.0242V46.6076C95.3338 44.3971 98.5008 33.1632 98.5008 33.1632Z" fill="#EEA584"/>
<path d="M104.786 24.4046C104.639 23.1142 103.89 22.0497 102.858 21.4261C102.136 22.5977 101.309 23.6971 101.187 25.2117C100.13 24.4818 98.7315 23.6797 97.5349 23.1499C94.8877 21.9783 91.3679 21.255 88.4815 21.5199C85.0746 21.833 79.1972 22.2531 78.2174 17.77C76.8714 18.3222 75.2746 20.908 74.6427 22.205C74.0349 23.4522 73.5641 24.9136 73.1904 26.3045C73.5168 33.5245 79.399 39.337 86.7228 39.4524C93.315 39.5562 98.8909 35.0108 100.344 28.847C100.636 28.8794 100.935 28.8869 101.24 28.8529C103.449 28.6037 105.036 26.6117 104.786 24.4046Z" fill="#FBCDB4"/>
<path d="M80.008 27.2769C80.0503 27.922 79.5613 28.4801 78.9161 28.5224C78.2709 28.5647 77.7129 28.0757 77.6705 27.4305C77.6282 26.7853 78.1173 26.2273 78.7625 26.1849C79.4076 26.1426 79.9656 26.6308 80.008 27.2769Z" fill="#2D2327"/>
<path d="M91.6418 26.513C91.6841 27.1581 91.195 27.7153 90.5499 27.7577C89.9047 27.8 89.3475 27.3109 89.3043 26.6658C89.262 26.0206 89.751 25.4626 90.3962 25.4202C91.0423 25.3795 91.6003 25.8678 91.6418 26.513Z" fill="#2D2327"/>
<path d="M82.6406 34.3688C82.6406 34.3688 85.008 35.6144 86.7418 33.7959" stroke="#EEA584" stroke-width="0.981" stroke-miterlimit="10" stroke-linecap="round" stroke-linejoin="round"/>
<path d="M140.224 158.609C139.384 158.702 136.628 159.325 136.538 157.791C136.485 156.881 138.474 157.043 139.115 157.057C138.832 156.682 138.276 155.217 138.91 155.026C139.239 154.927 140.05 155.538 140.315 155.691C140.644 155.882 140.893 156.171 141.197 156.37C141.634 155.845 142.327 154.712 143.081 154.647C143.988 154.569 143.562 155.704 143.438 156.205C143.859 155.608 145.19 154.888 144.716 156.171C144.421 156.971 143.752 157.464 143.014 157.82C142.146 158.237 141.186 158.298 140.224 158.609Z" fill="#EFB563"/>
<path d="M140.658 157.468C138.515 158.345 137.061 160.67 137.609 163.212C138.189 165.902 141.798 167.045 143.986 168.124C149.362 170.773 149.591 161.242 147.059 158.54C145.132 156.484 142.877 157.399 140.658 157.468Z" fill="#E76B39"/>
<path d="M144.826 168.448C149.376 169.736 149.451 161.094 147.058 158.54C145.796 157.194 144.394 157.122 142.952 157.253C144.226 157.78 145.235 158.349 146.008 159.65C146.923 161.189 146.871 163.529 146.483 165.202C146.199 166.422 145.395 167.381 144.826 168.448Z" fill="#D1532D"/>
<path d="M139.342 160.529C139.356 160.738 139.252 161.304 139.443 161.558C139.757 161.974 140.119 161.734 140.172 161.309C140.213 160.972 139.606 159.732 139.342 160.425" fill="#FFDE84"/>
<path d="M141.989 161.982C142.032 162.266 142.06 162.736 142.279 162.971C142.573 163.286 142.898 163.222 142.979 162.783C143.061 162.334 142.483 161.299 141.998 161.68C141.98 161.771 141.945 161.843 141.938 161.931" fill="#FFDE84"/>
<path d="M142.612 159.18C142.252 159.656 142.947 160.4 143.23 159.772C143.46 159.259 142.563 158.386 142.56 159.127" fill="#FFDE84"/>
<path d="M141.833 165.096C141.998 165.357 142.037 165.834 142.383 166.028C142.874 166.303 143.106 165.944 142.971 165.485C142.828 165.002 141.643 164.342 141.833 164.992" fill="#FFDE84"/>
<path d="M145.206 164.629C145.206 164.881 145.115 165.378 145.307 165.566C145.737 165.99 145.908 165.272 145.908 164.947C145.908 164.275 145.169 163.856 145.206 164.629Z" fill="#FFDE84"/>
<path d="M156.817 150.815C156.306 150.141 154.355 148.098 155.626 147.232C156.38 146.719 157.262 148.509 157.58 149.065C157.756 148.63 158.728 147.4 159.217 147.846C159.471 148.077 159.363 149.087 159.367 149.393C159.373 149.774 159.251 150.136 159.238 150.499C159.912 150.604 161.241 150.616 161.684 151.23C162.216 151.967 161.025 152.186 160.531 152.337C161.26 152.392 162.561 153.162 161.216 153.415C160.378 153.572 159.611 153.252 158.927 152.802C158.123 152.273 157.578 151.48 156.817 150.815Z" fill="#EFB563"/>
<path d="M158.019 150.6C156.165 149.212 153.424 149.159 151.524 150.936C149.514 152.815 150.387 156.498 150.586 158.931C151.076 164.904 159.369 160.203 160.387 156.642C161.161 153.932 159.218 152.468 158.019 150.6Z" fill="#E76B39"/>
<path d="M150.74 159.817C151.972 164.383 159.426 160.006 160.387 156.641C160.895 154.867 160.235 153.627 159.383 152.457C159.584 153.82 159.615 154.978 158.896 156.31C158.045 157.886 156.011 159.043 154.377 159.57C153.184 159.954 151.948 159.758 150.74 159.817Z" fill="#D1532D"/>
<path d="M154.715 151.045C154.544 151.165 154.004 151.367 153.885 151.66C153.689 152.143 154.082 152.33 154.473 152.157C154.783 152.02 155.535 150.862 154.804 150.992" fill="#FFDE84"/>
<path d="M154.829 154.061C154.607 154.244 154.22 154.509 154.13 154.818C154.01 155.232 154.232 155.478 154.651 155.322C155.078 155.162 155.669 154.134 155.093 153.914C155.006 153.944 154.927 153.952 154.847 153.99" fill="#FFDE84"/>
<path d="M157.554 153.156C156.96 153.092 156.68 154.071 157.363 153.991C157.921 153.925 158.21 152.706 157.572 153.085" fill="#FFDE84"/>
<path d="M152.078 155.528C151.939 155.803 151.55 156.082 151.561 156.478C151.577 157.04 152.004 157.056 152.328 156.704C152.669 156.332 152.627 154.977 152.167 155.475" fill="#FFDE84"/>
<path d="M154.212 158.182C153.997 158.312 153.523 158.489 153.46 158.75C153.318 159.337 154.021 159.115 154.3 158.948C154.877 158.602 154.855 157.752 154.212 158.182Z" fill="#FFDE84"/>
<path d="M134.144 170.81C133.617 170.539 132.542 170.972 131.847 171.505C131.826 171.417 131.799 171.326 131.769 171.231C131.506 170.384 131.188 169.541 130.937 168.671C130.578 167.427 129.164 166.808 128.683 168.408C128.58 168.75 128.581 169.08 128.635 169.399C127.79 168.739 126.863 168.274 125.968 168.323C123.797 168.441 123.878 169.728 125.128 170.927C124.193 170.926 122.002 171 121.347 171.785C120.534 172.761 121.398 173.48 122.502 173.339C121.706 173.771 118.28 175.085 119.597 176.635C120.452 177.643 123.623 176.072 124.567 175.681C123.897 176.63 123.416 178.294 125.154 178.441C126.691 178.571 127.668 176.613 128.335 175.56C127.834 178.846 130.238 178.773 131.265 176.102C131.794 174.726 131.563 173.517 132.944 172.737C133.51 172.417 136.009 171.766 134.144 170.81Z" fill="#EFB563"/>
<path d="M148.855 171.161C148.949 169.977 149.015 168.181 150.118 167.461C151.405 166.623 151.385 168.013 151.116 168.896C151.678 168.173 152.965 167.329 153.893 167.338C155.229 167.35 154.547 168.314 154.386 169.078C154.821 168.612 155.82 168.437 156.438 168.56C157.473 168.766 157.031 169.213 156.589 169.822C157.424 169.505 161.284 170.069 160.219 171.504C159.853 171.995 158.118 171.972 157.556 172.002C158.132 172.579 159.372 174.516 158.367 175.144C157.6 175.623 156.423 174.413 155.949 173.937C156.446 174.394 156.762 175.739 155.893 175.766C154.885 175.797 153.826 174.353 153.139 173.794C153.408 174.654 153.313 175.601 152.211 174.917C151.241 174.316 150.664 173.253 149.947 172.43C148.588 170.872 145.725 172.793 144.206 173.399C143.958 173.237 143.765 172.983 143.617 172.738C144.277 172.101 145.408 171.67 146.308 171.469C147.025 171.309 148.037 171.478 148.628 171.164C148.552 171.204 148.475 171.201 148.855 171.161Z" fill="#EFB563"/>
<path d="M11.5332 169.298C11.4884 170.484 11.4975 172.283 10.4255 173.047C9.17495 173.938 9.13677 172.549 9.36845 171.654C8.83701 172.4 7.58567 173.297 6.65981 173.327C5.3246 173.37 5.96563 172.379 6.09434 171.609C5.67916 172.092 4.68852 172.31 4.06575 172.213C3.02365 172.05 3.4463 171.586 3.86148 170.958C3.04025 171.309 -0.839189 170.908 0.164717 169.429C0.508486 168.923 2.24395 168.874 2.80445 168.82C2.20493 168.267 0.884651 166.383 1.86282 165.714C2.60848 165.204 3.83493 166.363 4.32982 166.819C3.81334 166.384 3.44215 165.053 4.30904 164.99C5.31461 164.917 6.43396 166.315 7.14309 166.845C6.83834 165.996 6.89314 165.046 8.02327 165.684C9.01721 166.244 9.63749 167.282 10.389 168.074C11.8122 169.574 14.5922 167.535 16.0844 166.866C16.3385 167.018 16.5427 167.264 16.7005 167.502C16.0678 168.167 14.9559 168.645 14.0658 168.883C13.3558 169.073 12.337 168.947 11.7607 169.284C11.8346 169.242 11.911 169.241 11.5332 169.298Z" fill="#EFB563"/>
</svg>
