<svg width="439" height="562" viewBox="0 0 439 562" fill="none" xmlns="http://www.w3.org/2000/svg">
<path d="M439 456.905H22.3298V476.373H439V456.905Z" fill="#563520"/>
<path d="M341.822 231.627C322.379 192.189 276.514 123.861 192.328 124.728C192.328 124.728 79.5717 127.166 28.9849 242.969C28.9849 242.969 -2.30248 322.016 0.135412 360.813C2.34219 395.947 16.6141 413.065 49.4548 414.852L49.1914 456.902H319.712C319.712 456.902 316.601 414.64 312.287 371.412C312.302 371.415 356.942 377.458 376.395 339.18C388.443 315.477 341.822 231.627 341.822 231.627Z" fill="#EFB563"/>
<path d="M376.396 339.183C378.975 334.106 378.851 326.258 377.084 317.075C362.964 283.221 321.959 290.813 307.658 286.668C288.125 281.004 278.773 257.806 270.287 240.136C265.918 240.293 263.306 238.392 259.22 237.699C241.817 234.741 222.799 236.983 205.13 236.175C182.267 235.131 150.326 238.563 127.43 237.445L104.242 240.251C102.562 250.735 100.676 266.188 90.3178 271.886C92.6091 277.833 92.9023 285.676 90.2234 291.608C80.8744 312.309 51.2122 311.153 36.232 327.319C22.4422 342.197 14.783 359.6 15.0489 379.983C15.1533 388.013 16.8408 398.594 21.0555 406.875C28.3518 411.571 37.6932 414.216 49.4552 414.854L49.1918 456.905H319.713C319.713 456.905 316.602 414.643 312.287 371.415C312.302 371.417 356.942 377.461 376.396 339.183Z" fill="#D69135"/>
<path d="M270.704 245.206L273.624 221.61" stroke="#D69135" stroke-miterlimit="10" stroke-linecap="round" stroke-linejoin="round"/>
<path d="M312.287 371.415L271.318 240.248C269.978 240.494 268.626 240.71 267.279 240.942L261.221 139.472C261.097 137.417 259.31 135.871 257.277 135.973C255.222 136.098 253.654 137.862 253.778 139.917L259.879 242.112C209.618 249.48 155.857 245.989 126.521 242.979L143.949 136.739C144.282 134.708 142.907 132.79 140.875 132.457C138.859 132.124 136.928 133.498 136.593 135.531L119.1 242.174C109.724 241.101 104.242 240.248 104.242 240.248L96.9553 290.189C95.3847 300.959 96.0508 311.939 98.9186 322.438L102.857 336.869C114.868 422.844 49.4575 414.852 49.4575 414.852L49.1941 456.902H319.715C319.715 456.902 316.604 414.641 312.287 371.415Z" fill="#D1532D"/>
<path d="M312.287 371.414L290.947 303.094C291.009 308.767 290.823 314.446 290.276 320.184C288.957 334.001 289.851 351.198 282.973 363.688C279.021 370.865 273.648 377.525 269.638 384.797C262.17 398.338 266.352 417.282 253.755 428.907C247.411 434.765 239.257 437.97 230.492 439.476C226.352 436.122 222.503 433.038 219.605 430.304C208.812 420.122 198.571 409.434 190.875 396.586C183.32 383.977 182.696 371.526 180.464 357.182C178.553 344.898 175.904 333.636 166.781 325.152C157.045 316.096 146.048 316.009 133.528 313.35C121.088 310.708 109.582 305.226 104.035 293.002C101.59 287.614 100.009 282.065 98.9679 276.421L96.9599 290.186C95.3894 300.957 96.0554 311.936 98.9232 322.435L102.862 336.866C114.873 422.841 49.4622 414.849 49.4622 414.849L49.1987 456.9H175.633H249.531H319.72C319.712 456.904 316.603 414.64 312.287 371.414Z" fill="#AF3C22"/>
<path d="M184.453 451.778V482.899L261.074 550.68L416.393 513.873V487.31L336.248 432.985L184.453 451.778Z" fill="#D69135"/>
<path d="M184.453 451.778L263.591 519.472L261.074 550.68L184.453 482.899V451.778Z" fill="#E76B39"/>
<path d="M263.592 519.472L416.393 487.31V513.873L261.074 550.68L263.592 519.472Z" fill="#EFB563"/>
<path d="M228.039 128.821C228.039 128.806 228.039 128.774 228.039 128.774L231.72 101.127L191.108 95.968L176.073 126.547L176.071 126.557C169.662 127.628 161.684 129.316 152.676 132C152.676 132 151.697 175.725 193.954 179.383C236.213 183.041 245.246 147.971 251.091 136.657C243.859 133.443 236.163 130.817 228.039 128.821Z" fill="#FBCDB4"/>
<path d="M191.111 95.968L187.122 104.082C192.257 111.445 204.739 125.446 227.935 130.67C228.032 129.49 228.042 128.774 228.042 128.774L231.722 101.127L191.111 95.968Z" fill="#EEA584"/>
<path d="M188.833 72.4838C187.585 79.0146 181.283 83.2964 174.752 82.0514C168.221 80.8039 163.939 74.5017 165.184 67.9708C166.432 61.4399 172.734 57.1581 179.265 58.4032C185.796 59.6482 190.078 65.9529 188.833 72.4838Z" fill="#EEA584"/>
<path d="M271.102 88.1845C269.854 94.7154 263.552 98.9972 257.021 97.7522C250.49 96.5046 246.209 90.2024 247.454 83.6715C248.701 77.1407 255.003 72.8589 261.534 74.1039C268.065 75.3514 272.347 81.6561 271.102 88.1845Z" fill="#EEA584"/>
<path d="M255.113 96.9341C266.035 76.9466 258.686 51.8895 238.698 40.9676C218.711 30.0456 193.654 37.3947 182.732 57.3822C171.81 77.3697 179.159 102.427 199.147 113.349C219.134 124.271 244.191 116.922 255.113 96.9341Z" fill="#FBCDB4"/>
<path d="M226.698 36.6384C204.324 32.369 182.724 47.0436 178.454 69.417C177.577 74.007 177.54 78.5522 178.161 82.9335C178.578 81.9568 179.108 81.0274 179.886 80.2396C182.152 77.9434 185.736 76.3355 188.874 75.7192C193.114 74.8867 197.443 74.7798 201.675 73.7933C204.769 73.0726 207.98 71.8325 210.994 71.3355C210.877 72.0984 210.425 72.9682 210.025 73.7063C215.94 75.4906 223.363 74.2207 229.411 73.0775C230.636 72.8464 232.803 72.0984 233.83 72.8688C234.327 73.2416 234.391 74.4369 234.737 75.001C235.681 76.5492 237.58 77.6973 239.123 78.7038C245.311 82.7396 252.085 86.7406 254.906 93.9822C255.187 94.7029 255.388 95.4311 255.565 96.1368C257.359 92.6751 258.708 88.9077 259.476 84.8818C263.748 62.5084 249.071 40.9079 226.698 36.6384Z" fill="#EEA584"/>
<path d="M204.394 86.5768C204.031 88.4779 202.195 89.7254 200.294 89.3626C198.393 88.9998 197.145 87.1633 197.508 85.2622C197.871 83.3611 199.707 82.1136 201.608 82.4764C203.51 82.8417 204.757 84.6757 204.394 86.5768Z" fill="#2D2327"/>
<path d="M238.668 93.1201C238.306 95.0212 236.469 96.2687 234.568 95.9059C232.667 95.5431 231.419 93.7066 231.782 91.8055C232.145 89.9044 233.982 88.6568 235.883 89.0197C237.786 89.3825 239.031 91.219 238.668 93.1201Z" fill="#2D2327"/>
<path d="M210.115 99.4073C210.115 99.4073 215.624 105.215 222.289 101.731" stroke="#EEA584" stroke-width="0.981" stroke-miterlimit="10" stroke-linecap="round" stroke-linejoin="round"/>
<path d="M223.616 36.3528C220.03 26.5068 221.002 14.7001 228.982 6.78252C239.029 -3.18524 257.993 -2.63603 263.544 11.5688C267.148 20.7861 263.718 32.2996 258.142 39.9189C254.685 44.6431 249.643 49.8891 243.544 48.5745C238.852 47.5631 233.559 45.1774 229.295 42.9458C227.446 41.9766 224.61 38.8801 223.616 36.3528Z" fill="#5B3322"/>
<path d="M254.944 35.2271C248.01 26.9691 233.4 24.6182 221.698 27.143C221.889 30.2842 222.543 33.408 223.616 36.3528C224.61 38.8802 227.446 41.9741 229.295 42.9433C233.559 45.1774 238.852 47.5631 243.544 48.5721C249.608 49.8793 254.625 44.7028 258.082 39.9985C257.13 38.1968 256.069 36.5665 254.944 35.2271Z" fill="#EFB563"/>
<path d="M176.077 76.9867C179.692 70.7218 186.442 68.3162 193.549 68.433C205.707 68.6343 213.967 64.8296 224.673 60.3788C223.08 64.2804 219.419 68.5448 215.642 70.4956C223.813 73.6144 233.488 68.7933 240.182 64.0368C242.521 70.1552 241.04 74.3426 246.582 79.4271C251.902 84.3078 255.409 87.8441 258.267 94.4297C263.58 83.6021 265.836 69.8768 260.794 58.3037C258.582 53.2266 257.136 48.7833 251.967 43.6515C247.717 39.4318 243.326 40.4209 243.326 40.4209C243.326 40.4209 238.731 33.7161 231.336 31.067C225.138 28.8453 218.666 26.9268 212.126 27.8264C200.652 29.4069 188.624 37.5382 183.388 48.0303C179.069 56.6909 178.107 66.7009 176.077 76.9867Z" fill="#5B3322"/>
<path d="M95.4837 295.649L87.427 247.03" stroke="#D69135" stroke-miterlimit="10" stroke-linecap="round" stroke-linejoin="round"/>
<path d="M389.678 456.905H294.312V419.007H389.678C400.143 419.007 408.627 427.491 408.627 437.956C408.627 448.42 400.143 456.905 389.678 456.905Z" fill="#5D7B6B"/>
<path d="M389.678 446.964H294.312V456.905H389.678C400.143 456.905 408.627 448.42 408.627 437.956C408.627 436.234 408.376 434.571 407.946 432.985C405.759 441.035 398.421 446.964 389.678 446.964Z" fill="#3A5343"/>
<path d="M294.312 456.905C304.777 456.905 313.261 448.421 313.261 437.956C313.261 427.491 304.777 419.007 294.312 419.007C283.847 419.007 275.363 427.491 275.363 437.956C275.363 448.421 283.847 456.905 294.312 456.905Z" fill="#FFDE84"/>
<path d="M294.312 451.778C301.946 451.778 308.134 445.589 308.134 437.956C308.134 430.322 301.946 424.134 294.312 424.134C286.678 424.134 280.49 430.322 280.49 437.956C280.49 445.589 286.678 451.778 294.312 451.778Z" fill="#EFB563"/>
<path d="M295.129 375.888L303.663 319.205C303.663 319.205 309.148 294.826 340.843 299.093C372.536 303.36 376.194 342.978 366.442 360.043C356.691 377.108 345.719 409.412 345.719 409.412L345.189 427.451C345.137 429.233 344.563 430.95 343.524 432.397C338.204 439.8 320.808 462.489 311.588 456.343L307.321 454.109C307.321 454.109 302.242 460.001 296.35 460.001C290.457 460.001 288.02 458.58 287.411 454.922C287.411 454.922 283.551 462.235 278.877 461.219C274.205 460.202 269.53 456.139 270.547 450.247C271.563 444.355 273.392 433.994 273.392 433.994C273.392 433.994 260.999 439.074 254.903 431.962C248.807 424.852 262.49 422.633 266.687 415.709C274.814 402.299 272.985 384.422 295.129 375.888Z" fill="#FBCDB4"/>
<path d="M298.452 353.818L295.129 375.888C295.129 375.888 306.426 372.622 316.367 379.951C326.307 387.279 345.716 409.409 345.716 409.409C345.716 409.409 347.329 404.66 349.866 397.851C341.889 383.862 322.075 353.949 298.452 353.818Z" fill="#EEA584"/>
<path d="M273.392 433.994L281.886 397.846" stroke="#EEA584" stroke-width="0.981" stroke-miterlimit="10" stroke-linecap="round" stroke-linejoin="round"/>
<path d="M287.408 454.919L298.971 415.92" stroke="#EEA584" stroke-width="0.981" stroke-miterlimit="10" stroke-linecap="round" stroke-linejoin="round"/>
<path d="M307.319 454.107L319.712 427.777" stroke="#EEA584" stroke-width="0.981" stroke-miterlimit="10" stroke-linecap="round" stroke-linejoin="round"/>
<path d="M234.883 451.843L174.87 412.821L191.804 386.78L277.858 442.732C268.507 457.116 249.267 461.194 234.883 451.843Z" fill="white"/>
<path d="M181.498 402.632L135.357 372.632C130.978 369.787 129.738 363.929 132.584 359.553C135.429 355.174 141.287 353.934 145.663 356.78L191.804 386.78L181.498 402.632Z" fill="#563520"/>
<path d="M30.6099 372.794C30.6099 372.794 37.9235 330.535 79.3701 322.816C120.817 315.095 142.35 311.844 157.385 307.376C172.42 302.905 185.422 312.252 187.047 321.598C188.673 330.945 191.516 358.979 196.394 364.67C201.27 370.358 209.396 379.705 207.365 391.894C205.333 404.084 209.011 424.201 202.082 422.774C188.267 419.929 195.174 391.894 195.174 391.894L181.764 378.892L179.731 407.742C179.731 407.742 178.511 413.43 171.605 413.838C164.699 414.245 156.57 404.899 156.977 397.585C156.977 397.585 143.163 394.74 141.538 389.051C139.912 383.363 138.287 367.516 138.287 367.516C138.287 367.516 111.47 395.958 86.6838 402.866C61.8974 409.77 28.9847 399.206 30.6099 372.794Z" fill="#FBCDB4"/>
<path d="M135.576 336.869C135.576 336.869 94.1864 405.913 35.8535 390.458C45.9306 403.574 68.4879 407.933 86.6839 402.861C111.47 395.952 138.287 367.51 138.287 367.51C138.287 367.51 129.984 356.039 135.576 336.869Z" fill="#EEA584"/>
<path d="M156.978 397.58V374.548" stroke="#EEA584" stroke-width="0.981" stroke-miterlimit="10" stroke-linecap="round" stroke-linejoin="round"/>
<path d="M181.764 368.646V378.89" stroke="#EEA584" stroke-width="0.981" stroke-miterlimit="10" stroke-linecap="round" stroke-linejoin="round"/>
<path d="M194.593 446.584L196.638 441.047L232.187 454.178L230.142 459.715C226.516 469.531 215.619 474.551 205.8 470.926C195.987 467.297 190.967 456.4 194.593 446.584Z" fill="#5D7B6B"/>
<path d="M220.979 429.837C230.796 433.463 235.816 444.36 232.19 454.178C228.564 463.995 217.667 469.015 207.848 465.389C198.032 461.763 193.012 450.866 196.638 441.047C200.264 431.231 211.161 426.211 220.979 429.837Z" fill="#FFDE84"/>
<path d="M219.202 434.646C226.364 437.29 230.025 445.24 227.381 452.402C224.737 459.564 216.787 463.224 209.625 460.58C202.463 457.936 198.802 449.984 201.446 442.824C204.09 435.662 212.04 431.999 219.202 434.646Z" fill="#EFB563"/>
<path d="M134.561 477.322L135.309 471.468L172.901 476.274L172.153 482.129C170.826 492.509 161.335 499.847 150.955 498.52C140.575 497.193 133.233 487.703 134.561 477.322Z" fill="#3A5343"/>
<path d="M163.331 490.46C172.487 485.39 175.8 473.859 170.73 464.703C165.661 455.547 154.129 452.234 144.973 457.303C135.817 462.372 132.504 473.904 137.574 483.06C142.643 492.216 154.175 495.529 163.331 490.46Z" fill="#FFDE84"/>
<path d="M155.858 460.158C163.43 461.127 168.785 468.05 167.816 475.622C166.85 483.195 159.923 488.55 152.351 487.581C144.779 486.614 139.424 479.688 140.393 472.116C141.362 464.544 148.286 459.191 155.858 460.158Z" fill="#EFB563"/>
<path d="M153.139 474.025L153.887 468.17L191.479 472.976L190.731 478.831C189.404 489.211 179.913 496.552 169.533 495.223C159.15 493.898 151.812 484.405 153.139 474.025Z" fill="#5D7B6B"/>
<path d="M175.085 451.778C185.465 453.105 192.804 462.596 191.477 472.976C190.15 483.356 180.659 490.695 170.279 489.368C159.899 488.04 152.558 478.55 153.885 468.17C155.214 457.789 164.705 450.451 175.085 451.778Z" fill="#FFDE84"/>
<path d="M174.436 456.863C182.008 457.832 187.364 464.755 186.395 472.327C185.425 479.9 178.502 485.255 170.93 484.286C163.358 483.317 158.002 476.393 158.971 468.821C159.938 461.249 166.862 455.893 174.436 456.863Z" fill="#EFB563"/>
<path d="M87.3375 444.959V420.717H19.9291V444.959C19.9291 445.983 19.099 446.81 18.0777 446.81C11.1219 446.81 5.4856 452.449 5.4856 459.402V532.571C5.4856 543.538 14.3748 552.427 25.3416 552.427H81.9274C92.8942 552.427 101.783 543.538 101.783 532.571V459.402C101.783 452.446 96.1447 446.81 89.1914 446.81C88.1651 446.81 87.3375 445.983 87.3375 444.959Z" stroke="#AEBDC6" stroke-miterlimit="10" stroke-linecap="round" stroke-linejoin="round"/>
<path d="M92.0469 425.346V409.255C92.0842 409.036 92.1513 408.823 92.1513 408.602C92.1513 401.912 74.9047 396.487 53.6322 396.487C32.3597 396.487 15.113 401.912 15.113 408.602V426.847H15.2498C16.6414 433.14 33.2717 438.112 53.6322 438.112C73.9926 438.112 90.623 433.14 92.0146 426.847H92.0469V426.651C92.0842 426.432 92.1513 426.218 92.1513 425.997C92.1513 425.779 92.0842 425.562 92.0469 425.346Z" fill="#9A9BA1"/>
<path d="M53.6322 420.716C74.9057 420.716 92.1513 415.292 92.1513 408.602C92.1513 401.911 74.9057 396.487 53.6322 396.487C32.3586 396.487 15.113 401.911 15.113 408.602C15.113 415.292 32.3586 420.716 53.6322 420.716Z" fill="#AEBDC6"/>
<path d="M12.9385 468.865V532.571C12.9385 539.408 18.5002 544.972 25.3392 544.972H81.925C88.764 544.972 94.3257 539.41 94.3257 532.571V468.865H12.9385Z" fill="#FFDE84"/>
<path d="M69.4749 468.865V532.571C69.4749 539.408 63.9132 544.972 57.0742 544.972H81.9253C88.7643 544.972 94.3259 539.41 94.3259 532.571V468.865H69.4749Z" fill="#EFB563"/>
<path d="M101.781 480.67H53.6323V519.189H101.781V480.67Z" fill="#AEBDC6"/>
<path d="M156.725 545.886C156.725 545.886 131.657 544.857 124.476 549.654L122.982 538.543L139.339 532.862C139.339 532.862 121.173 527.864 117.801 521.453L123.509 511.293L160.154 524.04L156.725 545.886Z" fill="#3A5343"/>
<path d="M139.096 555.059C149.864 541.043 174.961 545.563 189.511 547.594C205.329 549.803 220.48 555.014 236.258 557.802C247.834 559.848 261.81 562.942 273.615 560.036C289.693 556.08 290.282 538.744 274.343 535.526C254.114 531.443 231.527 533.327 210.751 531.092C194.064 529.301 177.332 525.518 161.569 519.733C152.292 516.328 144.292 510.305 135.873 506.115L132.383 513.326C135.164 517.069 144.364 524.88 149.165 525.459C142.674 525.558 136.554 523.953 130.338 522.723C130.087 527.419 130 532.295 129.774 537.067C135.194 536.493 142.264 538.468 147.565 538.57C141.596 539.559 135.54 546.189 132.458 550.941C135.028 552.666 137.746 553.667 139.096 555.059Z" fill="#5D7B6B"/>
<path d="M274.342 535.528C254.114 531.445 231.527 533.329 210.751 531.095C210.736 531.092 210.719 531.09 210.701 531.09C208.808 537.4 207.563 544.91 208.728 551.46C217.863 553.677 226.951 556.16 236.258 557.805C247.834 559.85 261.81 562.944 273.614 560.039C289.695 556.08 290.284 538.747 274.342 535.528Z" fill="white"/>
</svg>
