<svg width="15" height="15" viewBox="0 0 15 15" fill="none" xmlns="http://www.w3.org/2000/svg">
<path d="M14.8541 6.03113H14.25V6H7.5V9H11.7386C11.1203 10.7464 9.45862 12 7.5 12C5.01487 12 3 9.98512 3 7.5C3 5.01487 5.01487 3 7.5 3C8.64713 3 9.69075 3.43275 10.4854 4.13962L12.6068 2.01825C11.2673 0.769875 9.4755 0 7.5 0C3.35812 0 0 3.35812 0 7.5C0 11.6419 3.35812 15 7.5 15C11.6419 15 15 11.6419 15 7.5C15 6.99713 14.9482 6.50625 14.8541 6.03113Z" fill="#FFC107"/>
<path d="M0.864746 4.00912L3.32887 5.81625C3.99562 4.1655 5.61037 3 7.5 3C8.64712 3 9.69075 3.43275 10.4854 4.13962L12.6067 2.01825C11.2672 0.769875 9.4755 0 7.5 0C4.61925 0 2.121 1.62637 0.864746 4.00912Z" fill="#FF3D00"/>
<path d="M7.50012 15C9.43737 15 11.1976 14.2586 12.5285 13.053L10.2072 11.0888C9.45424 11.6591 8.51824 12 7.50012 12C5.54937 12 3.89299 10.7561 3.26899 9.02026L0.823242 10.9046C2.06449 13.3335 4.58524 15 7.50012 15Z" fill="#4CAF50"/>
<path d="M14.8541 6.03113H14.25V6H7.5V9H11.7386C11.4416 9.83888 10.902 10.5622 10.206 11.0891C10.2064 11.0887 10.2067 11.0887 10.2071 11.0884L12.5284 13.0526C12.3641 13.2019 15 11.25 15 7.5C15 6.99713 14.9482 6.50625 14.8541 6.03113Z" fill="#1976D2"/>
</svg>
