<svg width="16" height="14" viewBox="0 0 16 14" fill="none" xmlns="http://www.w3.org/2000/svg">
<path d="M3.25905 10.5267C4.1083 11.6956 5.35082 12.5188 6.75835 12.845C8.16587 13.1713 9.64382 12.9787 10.9207 12.3026C12.1976 11.6265 13.1876 10.5124 13.709 9.16486C14.2303 7.81734 14.2478 6.32701 13.7584 4.96757C13.269 3.60816 12.3055 2.47101 11.0449 1.76503C9.78429 1.05906 8.31122 0.831684 6.89642 1.12467C5.48162 1.41767 4.22004 2.21135 3.34349 3.35991C2.46694 4.50847 2.03427 5.93476 2.125 7.37671M2.125 7.37671L1 6.25171M2.125 7.37671L3.25 6.25171" stroke="#D1532D" stroke-width="2" stroke-linecap="round" stroke-linejoin="round"/>
<path d="M8.11328 4V6.99999L10.3633 9.24999" stroke="#D1532D" stroke-width="2" stroke-linecap="round" stroke-linejoin="round"/>
</svg>
