<svg width="7" height="27" viewBox="0 0 7 27" fill="none" xmlns="http://www.w3.org/2000/svg">
<path d="M2.65211e-05 23.9366V23.198C0.0163211 23.1382 0.0434787 23.0839 0.0543418 23.0242C0.293329 21.4708 1.58603 20.2432 3.1014 20.14C4.79604 20.0205 6.22996 20.9873 6.69707 22.5625C6.75682 22.7689 6.80027 22.9861 6.85458 23.198V23.9366C6.83829 23.9855 6.81113 24.029 6.8057 24.0833C6.57214 25.5172 5.54016 26.6089 4.12796 26.9185C4.01933 26.9403 3.9107 26.9728 3.80207 27H3.06338C3.0145 26.9837 2.96561 26.9565 2.91673 26.9511C1.50453 26.723 0.429117 25.7182 0.103199 24.3223C0.0706095 24.1865 0.0326157 24.0615 2.65211e-05 23.9366ZM6.85461 3.05792L6.85458 3.79666C6.83829 3.85641 6.81113 3.91073 6.8057 3.97047C6.56128 5.53475 5.26315 6.75684 3.73146 6.85461C2.04225 6.96324 0.613762 5.98557 0.152082 4.40499C0.0923353 4.204 0.0488837 3.99763 0 3.79664V3.05795C0.0162946 3.00906 0.0434522 2.96561 0.0543152 2.91673C0.315028 1.50453 1.13519 0.581173 2.50393 0.14122C2.68317 0.0814729 2.87328 0.0488837 3.05795 0H3.79664C3.84552 0.0162946 3.8944 0.0434522 3.94329 0.0488838C5.36092 0.282439 6.43092 1.28184 6.75682 2.67774C6.78943 2.8081 6.82202 2.93302 6.85461 3.05792ZM6.85458 13.128V13.8667C6.83829 13.9264 6.81113 13.9807 6.80027 14.0405C6.55585 15.5993 5.20883 16.854 3.688 16.9192C1.97707 16.9952 0.526858 15.9632 0.119493 14.3718C0.0760412 14.2034 0.0380207 14.0351 0 13.8667V13.128C0.0162946 13.0682 0.0434522 13.0139 0.0543152 12.9542C0.293302 11.3953 1.64575 10.1406 3.16658 10.07C4.87751 9.98857 6.32773 11.026 6.73509 12.6174C6.77854 12.7912 6.81656 12.9596 6.85458 13.128Z" fill="white"/>
</svg>
