<svg width="285" height="295" viewBox="0 0 285 295" fill="none" xmlns="http://www.w3.org/2000/svg">
<path d="M273.818 241.917H52.6705V252.25H273.818V241.917Z" fill="#563520"/>
<path d="M245.184 116.937C231.335 100.683 216.019 82.3299 189.841 71.3429C181.114 67.6815 171.215 65.5013 160.045 65.616C160.045 65.616 152.615 65.794 141.806 68.676C113.288 76.2825 75.6971 106.948 47.669 129.041C47.669 129.041 30.5224 142.89 39.0957 167.951C45.1432 185.629 76.3565 176.524 93.1734 171.248L84.0751 241.917H227.654C227.654 241.917 226.003 219.487 223.713 196.543C223.721 196.545 262.902 202.637 271.19 181.408C282.775 151.738 245.184 116.937 245.184 116.937Z" fill="#D1532D"/>
<path d="M92.171 179.035L84.0752 241.916H227.654C227.654 241.916 226.003 219.485 223.713 196.542L221.773 182.516C164.177 170.647 92.171 179.035 92.171 179.035Z" fill="#FFDE84"/>
<path d="M148.449 190.406C143.301 206.545 144.676 224.782 143.199 241.916H227.654C227.654 241.916 226.003 219.485 223.713 196.542L221.773 182.516C198.482 177.716 172.838 176.229 150.549 176.16C150.616 177.579 150.653 178.915 150.567 180.042C150.291 183.672 149.553 186.947 148.449 190.406Z" fill="#EFB563"/>
<path d="M167.611 96.0657C184.352 96.505 188.776 81.4621 189.866 71.3535C181.133 67.6842 171.225 65.5 160.044 65.6147C160.044 65.6147 153.153 65.7664 143.004 68.3621C143.005 68.3648 142.467 95.4063 167.611 96.0657Z" fill="#FBCDB4"/>
<path d="M178.906 80.8976H153.265L151.418 49.5325H172.342L178.906 80.8976Z" fill="#FBCDB4"/>
<path d="M151.418 49.5325L152.047 60.2122C152.047 60.2122 156.956 67.1183 175.623 65.215L172.34 49.5325H151.418Z" fill="#EEA584"/>
<path d="M148.185 39.3488C147.972 42.8704 144.945 45.5546 141.422 45.3422C137.901 45.1298 135.218 42.1028 135.429 38.5812C135.641 35.0595 138.668 32.3754 142.191 32.5878C145.713 32.7988 148.397 35.8258 148.185 39.3488Z" fill="#EEA584"/>
<path d="M190.112 41.2085C189.9 44.7302 186.873 47.4143 183.35 47.2019C179.828 46.9896 177.144 43.9625 177.356 40.4395C177.569 36.9179 180.596 34.2351 184.119 34.4462C187.642 34.6585 190.325 37.6869 190.112 41.2085Z" fill="#FBCDB4"/>
<path d="M179.703 50.9478C186.679 41.0745 184.33 27.4158 174.456 20.4403C164.583 13.4648 150.924 15.8139 143.949 25.6872C136.973 35.5606 139.322 49.2192 149.196 56.1948C159.069 63.1703 172.728 60.8212 179.703 50.9478Z" fill="#FBCDB4"/>
<path d="M148.185 37.179C148.075 38.1999 147.157 38.9398 146.136 38.829C145.116 38.7196 144.376 37.8016 144.486 36.7807C144.596 35.7598 145.514 35.0199 146.535 35.1307C147.557 35.2401 148.296 36.1568 148.185 37.179Z" fill="#2D2327"/>
<path d="M166.599 39.1628C166.489 40.1837 165.571 40.9223 164.551 40.8128C163.53 40.7033 162.79 39.7854 162.901 38.7645C163.01 37.7436 163.928 37.005 164.949 37.1145C165.97 37.2239 166.708 38.1419 166.599 39.1628Z" fill="#2D2327"/>
<path d="M164.069 50.7064C163.337 47.0977 160.708 44.2435 157.375 42.9271C157.325 43.0155 157.288 43.1118 157.229 43.1936C156.384 44.382 153.612 46.1019 152.088 45.8091C150.299 45.4675 150.356 44.0219 150.952 42.3851C145.564 43.5392 142.123 48.5394 143.203 53.8667C144.327 59.4077 149.909 63.1905 155.67 62.3173C161.433 61.4468 165.193 56.2474 164.069 50.7064Z" fill="#5B3322"/>
<path d="M149.069 48.7702C149.069 48.7702 152.432 51.3659 155.642 48.9944" stroke="white" stroke-width="0.981" stroke-miterlimit="10" stroke-linecap="round" stroke-linejoin="round"/>
<path d="M141.975 29.2929C138.09 30.8968 135.469 25.2582 135.888 22.032C136.368 18.3363 139.496 15.7722 143.112 15.9133C141.87 12.7636 146.536 9.89619 149.073 11.7586C149.656 7.78848 153.641 6.6014 157.211 6.53282C161.663 6.44708 165.859 8.9716 166.739 13.4482C169.104 12.4814 172.387 13.0155 173.671 15.5902C180.054 13.7449 187.742 16.7495 189.13 23.8786C189.983 28.2602 188.606 31.3479 186.952 35.2019C183.607 33.7972 180.133 39.9489 179.198 42.3085C177.007 41.6094 174.765 41.281 173.318 39.1984C171.789 36.9983 171.697 33.8038 172.116 31.2833C169.213 32.1854 165.772 30.2742 164.023 27.9898C163.072 29.0028 161.479 29.3285 160.108 29.4631C158.303 29.6385 156.756 29.285 155.149 28.4712C154.532 28.1573 152.932 26.5838 152.435 26.5693C151.466 26.5416 150.667 28.1889 149.562 28.5451C148.045 29.0344 146.312 28.2694 144.972 27.664C144.353 28.3156 143.303 29.1215 141.975 29.2929Z" fill="#5B3322"/>
<path d="M6.44599 18.8837L20.9322 62.4888C21.9425 65.5316 25.2611 67.146 28.2802 66.0618L62.1776 52.21L47.4131 4.46077L41.1533 6.53023L39.0957 0L9.60756 11.8377C6.88521 13.0103 5.51217 16.0703 6.44599 18.8837Z" fill="#E76B39"/>
<path d="M19.5077 29.8325C19.455 29.9354 19.3798 30.004 19.2835 30.0382C19.1938 30.0699 19.0988 30.0659 18.9973 30.0277C18.897 29.9881 18.8113 29.9011 18.7414 29.7678L17.0901 25.1897C16.9832 25.2134 16.8869 25.2042 16.8025 25.158C16.7181 25.1132 16.6574 25.042 16.6231 24.9457C16.602 24.889 16.5941 24.823 16.6007 24.7478C16.606 24.674 16.6324 24.6001 16.6772 24.5249C16.8896 24.2532 17.1468 24.0026 17.4475 23.7744C17.7482 23.5463 18.0714 23.3708 18.4169 23.2455C18.6979 23.144 18.9828 23.0846 19.269 23.0675C19.5552 23.0517 19.8388 23.0899 20.1184 23.1835C20.4481 23.2957 20.7146 23.4526 20.9177 23.6544C21.1208 23.8562 21.2685 24.0844 21.3609 24.3403C21.4347 24.5447 21.4743 24.7584 21.4783 24.9813C21.4822 25.2029 21.4558 25.4245 21.3978 25.6447C21.3398 25.865 21.2514 26.0774 21.134 26.2818C21.0166 26.4876 20.8689 26.6749 20.6922 26.8477C21.0351 27.0349 21.4018 27.2315 21.7948 27.4372C22.1865 27.643 22.5532 27.8369 22.8935 28.0176C22.9964 28.0822 23.0676 28.1679 23.1059 28.2774C23.1454 28.3856 23.1415 28.4858 23.0953 28.5794C23.0491 28.6718 22.9753 28.7364 22.8724 28.7733C22.821 28.7918 22.7616 28.801 22.6917 28.7997C22.6231 28.7984 22.5532 28.7799 22.4807 28.7404C22.4266 28.71 22.3316 28.6586 22.1984 28.5874C22.0639 28.5175 21.9122 28.437 21.7434 28.35C21.5745 28.2629 21.3952 28.1679 21.2065 28.0664C21.0179 27.9648 20.8412 27.8699 20.675 27.7815C20.5088 27.6931 20.3598 27.6153 20.2266 27.5467C20.0933 27.4794 19.9997 27.4306 19.9456 27.399C19.7847 27.4939 19.6198 27.5784 19.451 27.6535C19.2822 27.7287 19.1133 27.8013 18.9432 27.8698L19.5143 29.4526C19.5644 29.6043 19.5605 29.7309 19.5077 29.8325ZM19.8256 23.9644C19.633 23.9116 19.4365 23.8945 19.2386 23.9156C19.0408 23.9367 18.8443 23.9815 18.653 24.0515C18.4868 24.1121 18.3299 24.186 18.1808 24.2757C18.0331 24.3653 17.892 24.4669 17.7588 24.579L18.6623 27.0824C18.901 26.9822 19.1371 26.8754 19.3705 26.7619C19.604 26.6485 19.8229 26.5047 20.0274 26.3293C20.1501 26.2264 20.2556 26.1051 20.3453 25.9639C20.4363 25.8241 20.5075 25.6751 20.5589 25.5181C20.6117 25.3625 20.6394 25.2055 20.6447 25.0486C20.6499 24.8916 20.6275 24.7452 20.5787 24.6107C20.526 24.4643 20.4376 24.3324 20.3176 24.2176C20.1975 24.1055 20.0327 24.0198 19.8256 23.9644Z" fill="#EFB563"/>
<path d="M27.0984 25.9071C27.2171 25.857 27.3266 25.8452 27.4268 25.8702C27.527 25.8953 27.6022 25.9441 27.6537 26.0166C27.7051 26.0878 27.7289 26.1736 27.7249 26.2725C27.7209 26.3714 27.6761 26.473 27.5904 26.5759C27.3833 26.7236 27.1551 26.8634 26.9071 26.9953C26.6592 27.1285 26.402 27.2472 26.1369 27.3541C25.8717 27.4609 25.604 27.5519 25.3349 27.6271C25.0659 27.7023 24.8021 27.7537 24.5449 27.7814C24.4235 27.7669 24.3272 27.7313 24.256 27.6733C24.1848 27.6165 24.1399 27.5506 24.1202 27.478L24.1162 27.4688L22.5967 23.256C22.5044 23.26 22.424 23.2389 22.3567 23.1914C22.2894 23.1439 22.2406 23.0819 22.2129 23.0041C22.1852 22.9276 22.1839 22.8432 22.2077 22.7508C22.2327 22.6585 22.2921 22.5741 22.387 22.4963C22.6086 22.3288 22.8447 22.185 23.0927 22.0623C23.3406 21.9397 23.5952 21.8262 23.8537 21.722C24.1122 21.6178 24.3734 21.5189 24.6359 21.424C24.8983 21.329 25.1542 21.2301 25.4062 21.1245C25.5446 21.0678 25.6673 21.06 25.7715 21.1008C25.877 21.143 25.9522 21.205 25.997 21.2907C26.0419 21.3765 26.0498 21.4728 26.0195 21.5809C25.9905 21.6891 25.91 21.7854 25.7807 21.8672C25.4035 22.0254 24.9986 22.1784 24.5646 22.3288C24.1307 22.4778 23.7231 22.6572 23.3433 22.8669L23.9526 24.5565C24.2903 24.4497 24.6227 24.327 24.9537 24.1898C25.2835 24.0527 25.6119 23.9063 25.9403 23.7519C26.0788 23.6952 26.2002 23.6873 26.3057 23.7282C26.4112 23.7691 26.4864 23.8324 26.5312 23.9181C26.5761 24.0039 26.584 24.1002 26.555 24.2083C26.5246 24.3165 26.4455 24.4128 26.3162 24.4945C25.9759 24.6528 25.6317 24.8058 25.2835 24.9535C24.9353 25.1013 24.5858 25.2305 24.2362 25.3426L24.7968 26.8977C25.2017 26.8172 25.6053 26.6866 26.0076 26.5099C26.4112 26.3332 26.7739 26.1314 27.0984 25.9071Z" fill="#EFB563"/>
<path d="M31.6528 23.6227C31.7253 23.5027 31.815 23.4223 31.9245 23.384C32.026 23.3471 32.1263 23.351 32.2213 23.3959C32.3175 23.4407 32.3848 23.5172 32.4244 23.6267C32.4455 23.6834 32.4547 23.7612 32.4521 23.8549C32.4033 24.0606 32.3413 24.2651 32.2674 24.4682C32.1922 24.6726 32.0973 24.8626 31.9799 25.038C31.8625 25.2147 31.7227 25.373 31.5605 25.5141C31.3982 25.6553 31.2017 25.7687 30.9722 25.8518C30.6266 25.9758 30.2863 26.0193 29.9513 25.981C29.6163 25.9428 29.2997 25.8399 29.0043 25.6711C28.7088 25.5036 28.445 25.2741 28.2142 24.9852C27.9834 24.6964 27.8001 24.3627 27.6642 23.9854C27.5666 23.7164 27.5125 23.4539 27.4993 23.1993C27.4848 22.8577 27.4993 22.5478 27.5442 22.2721C27.589 21.9951 27.6669 21.7379 27.7803 21.4979C27.8924 21.2592 28.0375 21.0283 28.2142 20.8094C28.3923 20.5904 28.606 20.3662 28.8566 20.1394C29.0188 19.9864 29.1718 19.8584 29.3195 19.7555C29.4659 19.6526 29.6137 19.5735 29.7601 19.5208C29.9843 19.4403 30.2085 19.431 30.4341 19.4944C30.6596 19.5577 30.9076 19.7133 31.178 19.9626C31.2175 20.0127 31.2479 20.0681 31.269 20.1248C31.3112 20.2396 31.3085 20.3451 31.2637 20.4414C31.2188 20.5377 31.145 20.6036 31.0421 20.6406C30.9208 20.6841 30.7902 20.6735 30.6504 20.6089C30.4987 20.4691 30.3747 20.3754 30.2784 20.3306C30.1835 20.2857 30.0898 20.2791 30.0001 20.3121C29.9302 20.3372 29.8537 20.3847 29.7693 20.4546C29.6862 20.5245 29.5807 20.6115 29.4514 20.7157C29.243 20.8991 29.0518 21.1009 28.8777 21.3185C28.7036 21.5374 28.5664 21.7735 28.4675 22.0307C28.3686 22.2879 28.3158 22.561 28.3092 22.8538C28.3026 23.1453 28.358 23.4539 28.4754 23.7797C28.5585 24.0105 28.6746 24.2229 28.8249 24.4181C28.9753 24.6133 29.1467 24.7755 29.3419 24.9048C29.5358 25.034 29.7495 25.1158 29.979 25.1527C30.2085 25.1884 30.4486 25.162 30.6978 25.0723C30.8442 25.0195 30.9722 24.9404 31.079 24.8375C31.1859 24.7333 31.2769 24.6133 31.3507 24.4787C31.4246 24.3429 31.4853 24.2018 31.5341 24.0554C31.5855 23.9076 31.6238 23.7639 31.6528 23.6227Z" fill="#EFB563"/>
<path d="M35.8102 22.9698C35.9487 22.9131 36.07 22.9052 36.1755 22.9461C36.281 22.987 36.3562 23.0503 36.4011 23.136C36.4459 23.2204 36.4538 23.3167 36.4235 23.4249C36.3945 23.5343 36.314 23.6293 36.1861 23.7124C35.8576 23.8456 35.5279 23.9696 35.1982 24.0857C34.8671 24.2017 34.536 24.3191 34.2023 24.4391C34.0546 24.4708 33.9333 24.4589 33.837 24.4035C33.7407 24.3481 33.6774 24.2729 33.6471 24.1793C33.6167 24.0857 33.6246 23.9867 33.6708 23.8839C33.717 23.781 33.8093 23.7005 33.9478 23.6438C34.0441 23.6095 34.1377 23.5752 34.2314 23.5422C34.3237 23.5093 34.42 23.4776 34.5176 23.4486L33.0047 19.2556L32.4006 19.4732C32.2529 19.5049 32.1316 19.493 32.0353 19.4363C31.939 19.3809 31.8757 19.3057 31.8454 19.2121C31.815 19.1184 31.8229 19.0195 31.8691 18.9166C31.9153 18.8138 32.0076 18.7333 32.1461 18.6766L34.1232 17.963C34.2591 17.9578 34.3685 17.9828 34.4543 18.0382C34.54 18.0949 34.5954 18.1635 34.6205 18.2439C34.6455 18.3244 34.6402 18.4141 34.602 18.5104C34.5651 18.608 34.4899 18.6911 34.3778 18.7597L33.7921 18.9707L35.309 23.1743C35.392 23.1439 35.4751 23.1123 35.5569 23.0793C35.6374 23.0437 35.7218 23.0081 35.8102 22.9698Z" fill="#EFB563"/>
<path d="M35.8141 17.5396C35.8629 17.4539 35.9315 17.3945 36.0212 17.3616C36.0726 17.3431 36.1122 17.3352 36.1425 17.3392C36.3457 17.1426 36.5699 16.9606 36.8126 16.7931C37.0566 16.6269 37.3125 16.4937 37.5802 16.3974C37.7596 16.3328 37.9403 16.288 38.1223 16.2616C38.3043 16.2352 38.4916 16.2391 38.6842 16.2708C38.8886 16.2985 39.0878 16.3565 39.2791 16.4475C39.4703 16.5372 39.6457 16.6507 39.8027 16.7852C39.9596 16.9197 40.0995 17.0727 40.2234 17.2455C40.3474 17.417 40.4437 17.6003 40.5123 17.7916C40.6468 18.1622 40.6706 18.5407 40.5848 18.9259C40.4912 19.3282 40.3263 19.683 40.0902 19.989C39.8541 20.295 39.5429 20.535 39.1577 20.7104C39.0838 20.7447 39.006 20.7777 38.9282 20.8094C38.8491 20.841 38.7752 20.87 38.704 20.8951C38.5563 20.9479 38.4112 20.994 38.2648 21.0323C38.1197 21.0705 37.9733 21.1048 37.8256 21.1365C37.9139 21.3791 38.0128 21.6548 38.1236 21.9621C38.2344 22.2681 38.3373 22.5425 38.431 22.7839C38.4771 22.9329 38.4745 23.0595 38.4217 23.1624C38.3676 23.2653 38.2938 23.3339 38.1975 23.3682C38.1078 23.4011 38.0128 23.3972 37.9113 23.3576C37.8097 23.3181 37.7253 23.2323 37.6554 23.0978L36.9801 21.2262C36.9603 21.2328 36.9366 21.2354 36.9062 21.2315C36.7915 21.2156 36.6991 21.18 36.6292 21.1259C36.5593 21.0718 36.5119 21.0099 36.4868 20.9399C36.4565 20.8569 36.4578 20.7711 36.4908 20.6827C36.5237 20.5944 36.591 20.5192 36.6899 20.4546L35.7614 17.8826C35.7482 17.7388 35.7653 17.6254 35.8141 17.5396ZM38.5602 17.0965C38.3241 17.0661 38.0893 17.0925 37.8519 17.1783C37.6277 17.2587 37.4167 17.3734 37.2162 17.5212C37.0157 17.6689 36.8403 17.8219 36.6873 17.9775L37.5393 20.3385C37.6844 20.3214 37.8282 20.2976 37.9693 20.2646C38.1091 20.233 38.2503 20.1908 38.3901 20.1393C38.5246 20.0905 38.6552 20.0325 38.7831 19.9652C38.9572 19.8663 39.1247 19.7542 39.2843 19.6276C39.4452 19.501 39.5692 19.3387 39.6563 19.1409C39.7341 18.9536 39.7737 18.7663 39.7776 18.5764C39.7816 18.3878 39.7539 18.2097 39.6932 18.0422C39.6062 17.7995 39.4637 17.5924 39.2685 17.4196C39.072 17.2495 38.8372 17.1413 38.5602 17.0965Z" fill="#EFB563"/>
<path d="M45.5995 19.2318C45.7182 19.1817 45.8277 19.1698 45.928 19.1949C46.0282 19.2199 46.1034 19.2687 46.1548 19.3413C46.2063 19.4125 46.23 19.4982 46.226 19.5972C46.2221 19.6961 46.1772 19.7977 46.0915 19.9005C45.8844 20.0483 45.6563 20.1881 45.4083 20.32C45.1603 20.4532 44.9031 20.5732 44.638 20.6801C44.3729 20.7869 44.1051 20.8779 43.8361 20.9531C43.567 21.0283 43.3032 21.0797 43.046 21.1074C42.9247 21.0929 42.8284 21.0572 42.7572 20.9992C42.6859 20.9425 42.6411 20.8766 42.6213 20.804L42.6187 20.7948L41.0992 16.582C41.0069 16.5859 40.9264 16.5649 40.8592 16.5174C40.7919 16.4699 40.7431 16.4079 40.7154 16.3301C40.6877 16.2536 40.6864 16.1692 40.7114 16.0768C40.7365 15.9845 40.7959 15.9001 40.8908 15.8223C41.1124 15.6548 41.3472 15.5097 41.5965 15.3883C41.8444 15.2657 42.099 15.1522 42.3575 15.048C42.616 14.9438 42.8772 14.8449 43.1397 14.75C43.4021 14.655 43.6593 14.5561 43.9099 14.4505C44.0484 14.3938 44.1698 14.3859 44.2753 14.4268C44.3808 14.469 44.456 14.5323 44.5008 14.6167C44.5457 14.7025 44.5536 14.7988 44.5246 14.9069C44.4956 15.0164 44.4151 15.1114 44.2858 15.1931C43.9099 15.3514 43.5037 15.5044 43.0698 15.6548C42.6358 15.8038 42.2282 15.9832 41.8484 16.1929L42.4578 17.8825C42.7954 17.7757 43.1278 17.653 43.4588 17.5158C43.7886 17.3787 44.117 17.2322 44.4454 17.0779C44.5839 17.0212 44.7053 17.0133 44.8108 17.0542C44.9163 17.0951 44.9915 17.1584 45.0363 17.2441C45.0812 17.3299 45.0891 17.4261 45.0601 17.5343C45.0297 17.6425 44.9506 17.7388 44.8213 17.8205C44.4811 17.9788 44.1368 18.1318 43.7886 18.2795C43.4404 18.4272 43.0909 18.5565 42.7413 18.6686L43.3019 20.2237C43.7068 20.1419 44.1091 20.0126 44.5127 19.8359C44.9124 19.6578 45.2751 19.4573 45.5995 19.2318Z" fill="#EFB563"/>
<path d="M64.0242 118.708C51.4083 108.953 44.6354 88.8984 41.88 78.6844C41.9249 78.2887 41.8879 77.918 41.7204 77.5962C41.6703 77.4999 41.6017 77.4155 41.5239 77.3364C40.7391 74.2948 40.3738 72.4021 40.3738 72.4021C40.9027 71.1794 41.4619 69.9528 41.6914 68.4742C41.9434 66.8466 42.2784 65.1425 42.0911 63.4885L41.818 60.3705L26.7554 66.4694C25.4101 63.3989 24.2982 61.055 21.8515 58.7798C25.079 56.2329 29.2206 53.8245 31.1028 49.9731C31.6673 48.8163 32.0076 47.7282 31.8585 46.3763C31.7926 45.7814 31.1872 44.7737 31.2782 44.2382C31.3982 43.526 32.1685 43.183 32.6789 42.6726C34.7985 40.5504 35.764 37.3479 34.3857 34.5464C33.3569 32.4532 32.4547 33.2011 30.678 34.0795C28.5004 35.1571 26.1579 35.7467 23.764 36.2176C22.358 36.4946 20.6908 36.8151 19.0711 37.3031C16.4886 31.3374 5.26022 15.3304 0.84564 21.643C-1.4243 24.8876 1.34157 27.6601 3.66691 29.876C6.15712 32.2488 7.96279 34.797 9.47697 37.894C10.2552 39.4873 11.3618 41.2468 12.1083 43.0379C10.883 45.3343 9.62865 47.6754 8.72779 50.1063C6.16768 57.0151 5.70472 63.2722 6.0582 70.6189C6.29166 75.4661 6.80342 79.8266 9.56929 83.8059C9.48488 102.467 11.9738 167.551 50.3148 177.462C95.1518 189.053 82.8129 133.236 64.0242 118.708Z" fill="#FBCDB4"/>
<path d="M64.0242 118.708C63.0046 117.92 62.0365 117.044 61.0921 116.131C62.0009 117.934 62.8978 119.774 63.4966 121.783C65.7178 129.236 66.1359 136.878 66.1346 144.612C66.1332 155.603 64.904 166.521 59.4711 176.284C58.966 177.191 58.4173 178.038 57.8409 178.847C93.6284 182.434 81.6746 132.356 64.0242 118.708Z" fill="#EEA584"/>
<path d="M213.805 198.726L234.263 92.4478" stroke="#D69135" stroke-width="5" stroke-miterlimit="10" stroke-linecap="round" stroke-linejoin="round"/>
<path d="M219.959 103.979C217.35 103.647 215.452 105.433 214.642 107.764C214.174 109.112 214.096 110.266 213.364 111.527C212.429 113.141 211.079 114.03 209.984 115.452C207.073 119.235 211.536 122.568 215.336 122.281C220.896 121.863 222.219 116.252 222.968 111.717C223.461 108.725 223.424 106.156 220.907 104.333C220.669 104.367 220.586 104.412 219.959 103.979Z" fill="#EEA584"/>
<path d="M228.862 147.011C227.273 145.623 228.128 141.459 227.653 139.262C226.182 139.598 223.817 138.089 222.507 138.767C222.507 144.538 219.236 150.341 217.317 146.148C215.589 142.371 213.967 136.343 213.809 132.289C213.718 129.974 214.897 128.812 216.153 126.989C213.236 123.353 215.645 120.802 216.738 116.937C216.738 116.937 215.965 114.523 216.139 112.513C216.324 110.374 217.969 108.947 219.575 107.721C217.366 106.209 216.989 103.899 218.543 101.445C219.872 99.3421 223.303 98.7367 225.677 98.2605C228.034 97.7883 230.71 97.1724 233.054 97.237C236.421 97.3293 239.588 99.1864 242.357 100.931C246.493 103.539 250.355 106.217 254.215 109.212C261.348 114.745 264.96 122.088 267.952 130.517C272.231 142.575 276.472 154.588 280.531 166.727C284.637 179.002 288.929 193.101 277.841 202.886C269.736 210.038 258.4 212.885 248.64 207.503C238.46 201.889 235.704 188.829 235.661 178.186C235.626 169.201 236.324 151.739 236.324 151.739C236.268 151.991 230.432 148.381 228.862 147.011Z" fill="#FBCDB4"/>
<path d="M259.557 194.67C253.016 195.017 245.133 194.016 239.25 191.038C238.439 190.628 237.628 190.057 236.826 189.41C238.423 196.795 241.898 203.782 248.64 207.5C258.4 212.883 269.736 210.035 277.841 202.884C284.93 196.628 285.728 188.608 284.312 180.43C283.39 181.812 282.299 183.199 280.965 184.642C275.401 190.666 267.774 194.235 259.557 194.67Z" fill="#EEA584"/>
<path d="M219.575 107.721L231.335 105.793" stroke="#EEA584" stroke-miterlimit="10" stroke-linecap="round" stroke-linejoin="round"/>
<path d="M216.74 116.937L229.851 114.861" stroke="#EEA584" stroke-miterlimit="10" stroke-linecap="round" stroke-linejoin="round"/>
<path d="M216.154 126.989L228.862 125.743" stroke="#EEA584" stroke-miterlimit="10" stroke-linecap="round" stroke-linejoin="round"/>
<path d="M236.324 151.738C236.324 151.738 240.403 153.607 245.184 152.618" stroke="#EEA584" stroke-miterlimit="10" stroke-linecap="round" stroke-linejoin="round"/>
<path d="M213.428 183.135L219.978 149.207C220.322 147.42 222.051 146.251 223.84 146.591C225.628 146.936 226.798 148.665 226.454 150.453L220.083 183.455C219.78 185.034 213.085 184.923 213.428 183.135Z" fill="#D69135"/>
<path d="M31.2755 44.2395C31.2755 44.2395 10.8922 48.567 7.40746 54.29" stroke="#EEA584" stroke-miterlimit="10" stroke-linecap="round" stroke-linejoin="round"/>
<path d="M12.1057 43.0406C12.1057 43.0406 14.3756 38.3912 19.0685 37.3057" stroke="#EEA584" stroke-miterlimit="10" stroke-linecap="round" stroke-linejoin="round"/>
<path d="M21.8502 58.7811L16.4543 62.4451" stroke="#EEA584" stroke-miterlimit="10" stroke-linecap="round" stroke-linejoin="round"/>
<path d="M26.7528 66.4707C26.7528 66.4707 29.2035 72.7648 28.1048 77.3812" stroke="#EEA584" stroke-miterlimit="10" stroke-linecap="round" stroke-linejoin="round"/>
<path d="M40.3725 72.4021L36.6952 78.9191" stroke="#EEA584" stroke-miterlimit="10" stroke-linecap="round" stroke-linejoin="round"/>
<path d="M154.22 181.214V270.684C154.22 273.476 175.517 275.739 201.786 275.739C228.056 275.739 249.352 273.476 249.352 270.684V181.214H154.22Z" fill="#AEBDC6"/>
<path d="M227.654 274.927C228.926 274.839 230.153 274.745 231.337 274.645V181.214H227.654V274.927Z" fill="white"/>
<path d="M209.049 275.683C212.714 275.623 216.236 275.518 219.575 275.374V181.214H209.049V275.683Z" fill="white"/>
<path d="M249.351 181.214C249.351 184.006 228.055 186.27 201.785 186.27C175.515 186.27 154.219 184.006 154.219 181.214C154.219 178.422 175.515 176.159 201.785 176.159C228.056 176.159 249.351 178.422 249.351 181.214Z" fill="#526586"/>
<path d="M161.204 183.852C169.565 185.302 184.611 186.27 201.786 186.27C218.962 186.27 234.006 185.302 242.368 183.852C234.008 182.401 218.962 181.434 201.786 181.434C184.611 181.434 169.567 182.403 161.204 183.852Z" fill="#FFDE84"/>
<path d="M166.751 191.691H139.883V199.825H166.751V191.691Z" fill="#AEBDC6"/>
<path d="M262.785 191.691H235.917V199.825H262.785V191.691Z" fill="#AEBDC6"/>
<path d="M169.567 252.366C169.122 258.673 166.732 263.328 168.393 270.188C170.117 277.31 173.972 282.058 181.763 282.292C188.359 282.491 190.431 275.991 188.285 270.543C186.465 265.918 182.937 263.96 178.657 262.213C173.769 260.22 170.712 258.049 169.567 252.366Z" fill="#E76B39"/>
<path d="M200.764 282.663C191.287 281.606 189.896 270.995 198.134 266.299C203.902 263.013 215.814 262.273 215.458 253.297C217.56 258.977 219.608 265.446 217.841 272.273C215.641 280.766 210.526 282.101 200.764 282.663Z" fill="#E76B39"/>
<path d="M190.106 258.012C185.353 257.742 181.519 254.117 181.71 249.024C181.885 244.377 184.898 240.122 180.116 236.57C188.933 236.438 199.276 250.953 190.106 258.012Z" fill="#E76B39"/>
<path d="M228.878 263.57C229.945 267.241 216.19 279.26 226.096 280C234.835 280.651 236.829 266.379 228.878 263.57Z" fill="#E76B39"/>
<path d="M170.019 258.83C171.136 261.686 171.846 264.578 173.687 267.256C175.444 269.811 177.676 272.024 179.81 274.145C181.828 276.151 186.849 277.999 186.624 273.262C186.415 268.894 182.197 267.637 179.009 265.889C175.891 264.183 172.344 262.23 170.019 258.83Z" fill="#EFB563"/>
<path d="M185.196 240.461C187.527 241.077 189.85 245.945 189.705 248.172C189.437 252.295 184.745 249.39 185.146 245.906C185.302 244.552 186.43 242.067 185.196 240.461Z" fill="#EFB563"/>
<path d="M201.268 266.743C198.004 268.006 193.832 272.264 195.746 276.082C197.976 280.531 205.917 277.995 206.619 273.542C205.584 273.876 204.401 274.238 203.302 274.205C204.664 272.816 205.586 271.497 206.416 269.741C207.29 267.89 208.82 266.187 209.542 264.469C207.202 265.05 204.307 265.636 201.268 266.743Z" fill="#EFB563"/>
<path d="M51.3872 212.31C51.3872 207.861 46.1179 204.254 39.618 204.254C33.1182 204.254 27.8489 207.861 27.8489 212.31C27.8489 214.146 28.7563 215.402 30.2665 216.25V220.518H48.9524V216.261C50.4731 215.412 51.3872 214.154 51.3872 212.31Z" fill="#526586"/>
<path d="M46.8974 258.265H32.1184C27.9214 258.265 24.6161 254.686 24.9498 250.502L29.6071 225.136H49.4087L54.066 250.502C54.3997 254.685 51.0944 258.265 46.8974 258.265Z" stroke="#AEBDC6" stroke-miterlimit="10" stroke-linecap="round" stroke-linejoin="round"/>
<path d="M46.8974 258.265H32.1184C27.9214 258.265 24.6161 254.686 24.9498 250.502L29.6071 225.136H49.4087L54.066 250.502C54.3997 254.685 51.0944 258.265 46.8974 258.265Z" stroke="#AEBDC6" stroke-miterlimit="10" stroke-linecap="round" stroke-linejoin="round"/>
<path d="M32.117 254.308C31.2043 254.308 30.3615 253.938 29.7416 253.268C29.1586 252.636 28.8579 251.829 28.8843 250.98L32.3426 232.149L46.1126 229.093L50.1315 250.98C50.1579 251.831 49.8572 252.638 49.2742 253.268C48.6543 253.938 47.8114 254.308 46.8987 254.308H32.117Z" fill="#EFB563"/>
<path d="M49.7384 225.136H29.4962C28.2274 225.136 27.1881 224.097 27.1881 222.828C27.1881 221.558 28.2274 220.52 29.4962 220.52H49.7384C51.0086 220.52 52.0466 221.558 52.0466 222.828C52.0466 224.097 51.0086 225.136 49.7384 225.136Z" stroke="#AEBDC6" stroke-miterlimit="10" stroke-linecap="round" stroke-linejoin="round"/>
<path d="M41.5872 210.068C41.5872 210.609 40.8486 211.047 39.9385 211.047C39.0284 211.047 38.2898 210.609 38.2898 210.068C38.2898 209.527 39.0284 209.089 39.9385 209.089C40.8499 209.088 41.5872 209.527 41.5872 210.068Z" fill="#AEBDC6"/>
<path d="M34.4424 209.088C35.353 209.088 36.0911 208.65 36.0911 208.109C36.0911 207.569 35.353 207.131 34.4424 207.131C33.5318 207.131 32.7937 207.569 32.7937 208.109C32.7937 208.65 33.5318 209.088 34.4424 209.088Z" fill="#AEBDC6"/>
<path d="M44.8847 209.088C45.7952 209.088 46.5334 208.65 46.5334 208.109C46.5334 207.569 45.7952 207.131 44.8847 207.131C43.9741 207.131 43.2359 207.569 43.2359 208.109C43.2359 208.65 43.9741 209.088 44.8847 209.088Z" fill="#AEBDC6"/>
<path d="M84.0593 212.31C84.0593 207.861 78.79 204.254 72.2902 204.254C65.7903 204.254 60.521 207.861 60.521 212.31C60.521 214.146 61.4285 215.402 62.9387 216.25V220.518H81.6245V216.261C83.1453 215.412 84.0593 214.154 84.0593 212.31Z" fill="#526586"/>
<path d="M79.5696 258.265H64.7892C60.5923 258.265 57.2869 254.686 57.6206 250.502L62.2779 225.136H82.0796L86.7368 250.502C87.0719 254.685 83.7665 258.265 79.5696 258.265Z" stroke="#AEBDC6" stroke-miterlimit="10" stroke-linecap="round" stroke-linejoin="round"/>
<path d="M79.5696 258.265H64.7892C60.5923 258.265 57.2869 254.686 57.6206 250.502L62.2779 225.136H82.0796L86.7368 250.502C87.0719 254.685 83.7665 258.265 79.5696 258.265Z" stroke="#AEBDC6" stroke-miterlimit="10" stroke-linecap="round" stroke-linejoin="round"/>
<path d="M64.7892 254.307C63.8765 254.307 63.0323 253.938 62.4137 253.268C61.8321 252.636 61.53 251.829 61.5564 250.98L65.0134 232.149H79.2042L82.8023 250.98C82.8287 251.83 82.5267 252.638 81.945 253.268C81.3251 253.938 80.4823 254.307 79.5696 254.307H64.7892Z" fill="#E76B39"/>
<path d="M82.4106 225.136H62.1684C60.8982 225.136 59.8602 224.097 59.8602 222.828C59.8602 221.558 60.8982 220.52 62.1684 220.52H82.4106C83.6808 220.52 84.7188 221.558 84.7188 222.828C84.7188 224.097 83.6795 225.136 82.4106 225.136Z" stroke="#AEBDC6" stroke-miterlimit="10" stroke-linecap="round" stroke-linejoin="round"/>
<path d="M74.2594 210.068C74.2594 210.609 73.5208 211.047 72.6107 211.047C71.7006 211.047 70.962 210.609 70.962 210.068C70.962 209.527 71.7006 209.089 72.6107 209.089C73.5208 209.088 74.2594 209.527 74.2594 210.068Z" fill="#AEBDC6"/>
<path d="M67.1146 209.088C68.0251 209.088 68.7633 208.65 68.7633 208.109C68.7633 207.569 68.0251 207.131 67.1146 207.131C66.204 207.131 65.4659 207.569 65.4659 208.109C65.4659 208.65 66.204 209.088 67.1146 209.088Z" fill="#AEBDC6"/>
<path d="M77.5568 209.088C78.4674 209.088 79.2055 208.65 79.2055 208.109C79.2055 207.569 78.4674 207.131 77.5568 207.131C76.6463 207.131 75.9081 207.569 75.9081 208.109C75.9081 208.65 76.6463 209.088 77.5568 209.088Z" fill="#AEBDC6"/>
<path d="M45.9279 259.23C44.4454 259.611 41.6967 259.982 39.7961 260.749C36.5738 262.049 33.5112 264.957 31.9377 268.078C29.8326 272.249 28.8143 276.944 31.0619 281.278C33.3898 285.769 39.155 288.948 44.0445 289.793C53.6993 291.462 67.2121 288.648 70.1231 277.69C71.6557 271.92 67.9982 264.594 62.6617 261.956C58.0334 259.669 51.4808 257.807 45.9279 259.23Z" fill="#E76B39"/>
<path d="M62.6604 261.956C58.0334 259.669 51.4808 257.807 45.9279 259.23C44.4454 259.611 41.6967 259.982 39.7961 260.749C39.3067 260.947 38.8213 261.186 38.3439 261.452C39.064 261.355 39.8633 261.144 40.3276 261.096C41.2997 260.997 42.219 261.104 43.1898 261.21C42.6411 262.167 42.2691 263.594 42.2111 264.738C44.1961 264.358 45.9794 263.543 47.7415 262.562C48.8534 263.703 50.4718 265.101 52.168 265.209C52.3276 264.318 51.924 263.345 51.7828 262.485C52.9369 263.192 54.3271 263.477 55.6844 263.34C55.3005 262.77 54.7096 262.431 54.4208 261.869C57.8013 262.493 59.45 264.183 60.8323 266.463C63.6179 271.058 62.7804 276.677 61.3098 281.648C59.9103 286.381 55.8308 289.573 55.8308 289.573C62.3781 288.183 68.3082 284.519 70.1218 277.692C71.6544 271.918 67.9969 264.594 62.6604 261.956Z" fill="#D1532D"/>
<path d="M41.0913 258.499C40.4437 258.425 39.4215 258.284 38.7567 258.134C39.5323 259.595 41.4843 259.738 42.9273 260.021C41.7257 261.419 40.9686 262.844 40.8446 264.725C42.7097 264.284 43.9574 262.633 45.4544 261.617C45.7894 263.283 47.818 265.124 49.4628 265.438C49.7516 263.895 49.3493 262.737 49.1726 261.281C50.2264 262.107 52.3038 261.921 53.4896 261.541C52.5927 261.439 51.3792 260.785 50.7593 260.14C51.8923 260.194 52.6019 260.269 53.537 259.533C53.971 259.192 54.6226 258.808 54.6635 258.202C53.4329 258.804 52.0044 258.721 50.7791 258.209C49.5142 257.681 48.831 257.52 46.9409 258.061C46.5623 256.129 47.5635 254.741 48.0792 253.018C46.6797 252.305 45.3687 252.813 45.3687 252.813C44.9282 253.594 44.5259 255.493 44.7554 256.355C44.907 256.926 45.3634 257.521 45.2895 258.123C43.7622 257.766 42.0357 258.606 41.0913 258.499Z" fill="#5D7B6B"/>
<path d="M147.243 269.32H147.238C147.523 257.786 137.98 251.383 127.105 249.345C121.387 248.274 114.14 248.339 104.468 249.576C97.001 250.23 80.8568 255.633 79.4033 264.74C79.2358 265.786 79.216 266.74 79.3097 267.617L79.249 267.616L80.2237 277.135C80.5667 280.477 83.2283 283.129 86.5772 283.392C87.912 283.496 89.533 283.526 91.497 283.43C100.509 282.991 106.226 284.09 108.644 288.926C109.646 290.931 121.215 297.5 134.055 293.982C146.894 290.464 147.255 283.869 147.255 283.869L147.243 269.32Z" fill="#E76B39"/>
<path d="M104.466 249.576C96.9997 250.231 80.8556 255.633 79.4021 264.741C77.7929 274.823 89.1835 276.756 96.3337 276.835C100.371 276.88 104.35 275.593 107.653 278.045C111.094 280.6 112.292 283.778 116.778 285.308C127.642 289.016 145.133 285.107 147.027 271.92C148.92 258.734 138.774 251.531 127.105 249.345C121.387 248.274 114.14 248.339 104.466 249.576Z" fill="#EEA584"/>
<path d="M96.1134 256.171C87.7894 258.361 88.3512 270.784 97.2081 271.14C101.694 271.321 106.525 268.695 110.742 271.878C113.766 274.161 114.008 277.622 118.073 279.141C127.18 282.543 140.229 279.207 140.518 267.86C140.756 258.519 132.384 255.619 124.593 254.071C120.163 253.192 114.765 253.177 110.181 253.632C107.019 253.945 99.0929 254.081 96.1134 256.171Z" fill="#FBCDB4"/>
<path d="M134.055 269.699C134.055 272.305 130.728 274.417 126.625 274.417C122.522 274.417 119.195 272.303 119.195 269.699C119.195 267.092 122.522 264.981 126.625 264.981C130.728 264.981 134.055 267.094 134.055 269.699Z" fill="white"/>
</svg>
