<svg width="151" height="34" viewBox="0 0 151 34" fill="none" xmlns="http://www.w3.org/2000/svg">
<path d="M8.67265 26.7118C6.95096 26.7118 5.43486 26.2878 4.12432 25.4398C2.81379 24.5918 1.79877 23.4226 1.07926 21.9322C0.359754 20.4418 0 18.7329 0 16.8057C0 14.8527 0.359754 13.1439 1.07926 11.6792C1.82447 10.1888 2.85234 9.0324 4.16287 8.21011C5.4734 7.38781 6.97666 6.97666 8.67265 6.97666C10.3429 6.97666 11.7948 7.36211 13.0282 8.13302C14.2617 8.90392 15.2253 10.0217 15.9191 11.4864C16.6129 12.9512 16.9598 14.7242 16.9598 16.8057C16.9598 18.81 16.6129 20.5574 15.9191 22.0478C15.2253 23.5125 14.2488 24.656 12.9897 25.4783C11.7563 26.3006 10.3172 26.7118 8.67265 26.7118ZM9.55918 22.0478C10.8697 22.0478 11.9361 21.5724 12.7584 20.6216C13.5807 19.6452 13.9919 18.386 13.9919 16.8442C13.9919 15.2767 13.5807 14.0176 12.7584 13.0668C11.9361 12.0903 10.8697 11.6021 9.55918 11.6021C8.27435 11.6021 7.20793 12.0903 6.35994 13.0668C5.53764 14.0176 5.1265 15.2639 5.1265 16.8057C5.1265 18.3475 5.53764 19.6066 6.35994 20.5831C7.20793 21.5596 8.27435 22.0478 9.55918 22.0478ZM15.7878 26.2492C15.3409 26.2492 14.9482 25.9527 14.8259 25.5228L13.8147 21.9681C13.7876 21.8728 13.8591 21.778 13.9582 21.778C14.0407 21.778 14.1075 21.7112 14.1075 21.6287V12.5079C14.1075 12.4121 14.0298 12.3344 13.9341 12.3344C13.8383 12.3344 13.7606 12.2568 13.7606 12.161V0.999999C13.7606 0.447715 14.2083 0 14.7606 0H17.81C18.3623 0 18.81 0.447715 18.81 1V25.2492C18.81 25.8015 18.3623 26.2492 17.81 26.2492H15.7878Z" fill="#D1532D"/>
<path d="M28.92 26.7888C27.5323 26.7888 26.3117 26.5319 25.2582 26.0179C24.2046 25.4783 23.3952 24.7331 22.8298 23.7823C22.2645 22.8058 21.9818 21.6752 21.9818 20.3904C21.9818 19.1055 22.2774 17.9877 22.8684 17.0369C23.4851 16.0862 24.3202 15.3538 25.3738 14.8399C26.4274 14.3002 27.6223 14.0304 28.9585 14.0304C30.783 14.0304 32.2605 14.4544 33.3912 15.3024C34.1695 15.8559 34.779 16.5723 35.2197 17.4517C35.5387 18.0882 34.9671 18.7469 34.2612 18.6543C33.7634 18.589 33.3912 18.1648 33.3912 17.6628V13.9919C33.3912 13.2724 33.1342 12.6299 32.6203 12.0646C32.1064 11.4993 31.2712 11.2166 30.1149 11.2166C29.3953 11.2166 28.5988 11.3066 27.7251 11.4864C27.1558 11.5869 26.5702 11.7528 25.9682 11.9842C25.4281 12.1918 24.8037 11.957 24.5859 11.4209L23.8366 9.57634C23.6387 9.08925 23.8507 8.52918 24.3349 8.32433C25.1849 7.9647 26.0709 7.66966 26.9927 7.4392C28.2518 7.13084 29.511 6.97666 30.7701 6.97666C32.4918 6.97666 33.918 7.28502 35.0486 7.90175C36.1793 8.51847 37.0273 9.36646 37.5926 10.4457C38.1579 11.525 38.4406 12.7584 38.4406 14.1461V25.2492C38.4406 25.8015 37.9929 26.2492 37.4406 26.2492H35.1752C34.7339 26.2492 34.3448 25.96 34.2176 25.5375L33.6092 23.5167C33.4679 23.0474 33.7367 22.553 34.2074 22.4164C34.8738 22.2229 35.4746 22.8397 35.142 23.4487C34.689 24.2782 34.0797 24.9676 33.3141 25.5169C32.1577 26.3648 30.693 26.7888 28.92 26.7888ZM30.3076 22.9343C31.2327 22.9343 31.9779 22.7031 32.5432 22.2405C33.1085 21.778 33.3912 21.1613 33.3912 20.3904C33.3912 19.5938 33.1085 18.977 32.5432 18.5402C31.9779 18.0777 31.2327 17.8464 30.3076 17.8464C29.3825 17.8464 28.6373 18.0777 28.072 18.5402C27.5066 18.977 27.224 19.5938 27.224 20.3904C27.224 21.1613 27.5066 21.778 28.072 22.2405C28.6373 22.7031 29.3825 22.9343 30.3076 22.9343Z" fill="#D1532D"/>
<path d="M52.6225 26.7118C50.9522 26.7118 49.5003 26.3263 48.2669 25.5554C47.0334 24.7588 46.0698 23.6281 45.376 22.1634C44.7079 20.6987 44.3738 18.9256 44.3738 16.8442C44.3738 14.8142 44.7207 13.0668 45.4146 11.6021C46.1084 10.1374 47.072 9.00671 48.3054 8.21011C49.5646 7.38781 51.0164 6.97666 52.661 6.97666C54.3827 6.97666 55.886 7.40066 57.1708 8.24865C58.4813 9.07095 59.4964 10.2273 60.2159 11.7177C60.9611 13.1824 61.3337 14.8913 61.3337 16.8442C61.3337 18.7715 60.9611 20.4803 60.2159 21.9707C59.4964 23.4611 58.4813 24.6303 57.1708 25.4783C55.8603 26.3006 54.3442 26.7118 52.6225 26.7118ZM43.5237 33.5728C42.9714 33.5728 42.5237 33.1251 42.5237 32.5728V8.40066C42.5237 7.84837 42.9714 7.40066 43.5237 7.40066H45.5459C45.9928 7.40066 46.3854 7.69719 46.5077 8.12703L47.513 11.6607C47.5431 11.7666 47.4636 11.8719 47.3535 11.8719C47.2619 11.8719 47.1876 11.9461 47.1876 12.0377V21.1227C47.1876 21.2292 47.2739 21.3154 47.3803 21.3154C47.4868 21.3154 47.5731 21.4017 47.5731 21.5082V32.5728C47.5731 33.1251 47.1254 33.5728 46.5731 33.5728H43.5237ZM51.7745 22.0478C53.0593 22.0478 54.1129 21.5724 54.9352 20.6216C55.7832 19.6452 56.2072 18.386 56.2072 16.8442C56.2072 15.3024 55.7832 14.0433 54.9352 13.0668C54.1129 12.0903 53.0593 11.6021 51.7745 11.6021C50.4897 11.6021 49.4232 12.0903 48.5752 13.0668C47.7273 14.0176 47.3033 15.2767 47.3033 16.8442C47.3033 18.386 47.7273 19.6452 48.5752 20.6216C49.4232 21.5724 50.4897 22.0478 51.7745 22.0478Z" fill="#D1532D"/>
<path d="M111.027 7.40066C111.488 7.40066 111.889 7.71557 111.998 8.16321L113.055 12.4872C113.074 12.565 113.084 12.6447 113.084 12.7247V25.2492C113.084 25.8015 112.636 26.2492 112.084 26.2492H109.035C108.482 26.2492 108.035 25.8015 108.035 25.2492V8.40066C108.035 7.84837 108.482 7.40066 109.035 7.40066H111.027ZM112.275 14.581C112.132 14.895 111.767 15.0601 111.453 14.9164C111.249 14.8228 111.118 14.6188 111.118 14.3941V11.2652C111.118 11.0344 111.198 10.8106 111.344 10.632L111.465 10.4843C111.748 10.0217 112.172 9.52064 112.737 8.98101C113.328 8.44138 113.996 7.97884 114.741 7.59338C115.512 7.18224 116.309 6.97666 117.131 6.97666C117.542 6.97666 117.915 7.00236 118.249 7.05375C118.358 7.07055 118.459 7.09145 118.552 7.11648C118.864 7.20065 119.02 7.51524 119.02 7.83819V10.9104C119.02 11.4627 118.572 11.9104 118.02 11.9104H117.786C116.116 11.9104 114.831 12.1803 113.932 12.7199C113.202 13.1371 112.65 13.7574 112.275 14.581Z" fill="#D1532D"/>
<path d="M124.461 17.266C124.461 16.7137 124.909 16.266 125.461 16.266H136.413C136.965 16.266 137.413 16.7137 137.413 17.266V19.9685C137.413 20.5208 136.965 20.9685 136.413 20.9685H125.461C124.909 20.9685 124.461 20.5208 124.461 19.9685V17.266ZM120.405 26.2492C119.714 26.2492 119.231 25.5653 119.462 24.9144L128.08 0.665154C128.221 0.26639 128.599 0 129.022 0H133.5C133.927 0 134.306 0.271175 134.445 0.675037L142.778 24.9242C143.001 25.5734 142.518 26.2492 141.832 26.2492H138.866C138.435 26.2492 138.053 25.9738 137.917 25.5654L130.781 4.15883C130.668 3.81949 130.921 3.46906 131.279 3.46906C131.639 3.46906 131.892 3.82499 131.773 4.16559L124.31 25.5784C124.17 25.9801 123.791 26.2492 123.365 26.2492H120.405Z" fill="#D1532D"/>
<path d="M151 25.2492C151 25.8015 150.552 26.2492 150 26.2492H146.951C146.398 26.2492 145.951 25.8015 145.951 25.2492V1C145.951 0.447715 146.398 0 146.951 0H150C150.552 0 151 0.447715 151 1V25.2492Z" fill="#D1532D"/>
<path d="M105.876 16.3835C105.876 18.4255 105.271 20.4217 104.136 22.1196C103.002 23.8174 101.389 25.1408 99.5025 25.9222C97.6159 26.7036 95.54 26.9081 93.5372 26.5097C91.5345 26.1113 89.6948 25.128 88.2509 23.6841C88.2214 23.6546 88.1928 23.6242 88.1652 23.593L77.8646 11.9622C76.9937 11.1075 75.8898 10.5291 74.6913 10.2995C73.4929 10.0698 72.2533 10.1993 71.1281 10.6715C70.003 11.1438 69.0424 11.9378 68.3668 12.954C67.6913 13.9702 67.3309 15.1633 67.3309 16.3835C67.3309 17.6038 67.6913 18.7969 68.3668 19.813C69.0424 20.8292 70.003 21.6233 71.1281 22.0955C72.2533 22.5678 73.4929 22.6972 74.6913 22.4676C75.8898 22.238 76.9937 21.6595 77.8646 20.8048L78.3956 20.2054C78.5753 20.0024 78.7934 19.8367 79.0371 19.718C79.2809 19.5993 79.5457 19.5297 79.8164 19.5133C80.0871 19.4969 80.3583 19.5339 80.6147 19.6223C80.871 19.7107 81.1074 19.8488 81.3104 20.0286C81.5134 20.2084 81.679 20.4264 81.7978 20.6702C81.9165 20.9139 81.9861 21.1787 82.0025 21.4494C82.0189 21.7201 81.9819 21.9913 81.8935 22.2477C81.805 22.504 81.667 22.7404 81.4872 22.9434L80.9119 23.593C80.8843 23.6242 80.8557 23.6546 80.8262 23.6841C79.3823 25.128 77.5427 26.1114 75.5399 26.5097C73.5371 26.9081 71.4612 26.7037 69.5746 25.9222C67.688 25.1408 66.0755 23.8174 64.9411 22.1196C63.8066 20.4217 63.201 18.4256 63.201 16.3835C63.201 14.3415 63.8066 12.3454 64.9411 10.6475C66.0755 8.94964 67.688 7.62631 69.5746 6.84487C71.4612 6.06343 73.5371 5.85897 75.5399 6.25735C77.5427 6.65574 79.3823 7.63906 80.8262 9.08299C80.8557 9.11248 80.8843 9.14284 80.9119 9.17407L91.2125 20.8048C92.0834 21.6595 93.1873 22.238 94.3858 22.4676C95.5842 22.6972 96.8238 22.5678 97.949 22.0955C99.0741 21.6233 100.035 20.8292 100.71 19.8131C101.386 18.7969 101.746 17.6038 101.746 16.3835C101.746 15.1633 101.386 13.9702 100.71 12.954C100.035 11.9378 99.0741 11.1438 97.949 10.6715C96.8238 10.1993 95.5842 10.0698 94.3858 10.2995C93.1873 10.5291 92.0834 11.1075 91.2125 11.9622L90.6815 12.5617C90.3184 12.9717 89.8074 13.2207 89.2607 13.2538C88.7141 13.287 88.1766 13.1016 87.7667 12.7385C87.3567 12.3754 87.1077 11.8643 87.0746 11.3177C87.0414 10.771 87.2268 10.2336 87.5899 9.82362L88.1652 9.17405C88.1928 9.14288 88.2214 9.11252 88.2509 9.08297C89.6948 7.63906 91.5345 6.65575 93.5372 6.25738C95.54 5.85901 97.6159 6.06347 99.5025 6.84491C101.389 7.62635 103.002 8.94967 104.136 10.6475C105.27 12.3454 105.876 14.3415 105.876 16.3835Z" fill="#D1532D"/>
</svg>
