<svg width="23" height="14" viewBox="0 0 23 14" fill="none" xmlns="http://www.w3.org/2000/svg">
<path d="M21.8871 0C22.5017 0 23 0.494848 23 1.10526C23 1.71568 22.5017 2.21053 21.8871 2.21053V0ZM1.1129 2.21053C0.498283 2.21053 0 1.71568 0 1.10526C0 0.494848 0.498283 0 1.1129 0V2.21053ZM21.8871 5.89474C22.5017 5.89474 23 6.3896 23 7C23 7.6104 22.5017 8.10526 21.8871 8.10526V5.89474ZM4.08064 8.10526C3.46603 8.10526 2.96774 7.6104 2.96774 7C2.96774 6.3896 3.46603 5.89474 4.08064 5.89474V8.10526ZM21.8871 11.7895C22.5017 11.7895 23 12.2843 23 12.8947C23 13.5051 22.5017 14 21.8871 14V11.7895ZM11.5 14C10.8854 14 10.3871 13.5051 10.3871 12.8947C10.3871 12.2843 10.8854 11.7895 11.5 11.7895V14ZM21.8871 2.21053H1.1129V0H21.8871V2.21053ZM21.8871 8.10526H4.08064V5.89474H21.8871V8.10526ZM21.8871 14H11.5V11.7895H21.8871V14Z" fill="#505050"/>
</svg>
